SplineFontDB: 3.0
FontName: Career
FullName: Career
FamilyName: Career
Weight: Medium
Copyright: Created by Antoine Gelgon with FontForge 2.0 (http://fontforge.sf.net)\n\nUnder OpenFont License http://scripts.sil.org/cms/scripts/page.php?site_id=nrsi&id=OFL\n
UComments: "2014-5-9: Created." 
FontLog: "FontLog Career Caslon+AAoACgAK-14/08/2014 : Antoine Gelgon+AAoA--Modified vector of 's'+AAoA--creation of the 'C' and 'R'+AAoACgAA-15/08/2014 : Antoine Gelgon+AAoA--Creation of the 'E' 'F' 'I' 'D' 'A' 'N'+AAoA--modification of the finestroke on the 'L'+AAoA--Normalization of finestroke around 16 large for capitals.+AAoACgAA-18/08/2014 : Antoine Gelgon+AAoA--Creation of the 'O' 'Q' 'M' 'K'+AAoACgAA-22/08/2014 : Antoine Gelgon+AAoA--Creation of the U V W+AAoA--Modification of the w v+AAoACgAA-25/08/2014 : Antoine Gelgon+AAoA--Creation of the X Y G+AAoA--Modification f's drop.+AAoA--Optical modifications for O C Q S. these letters have been extended+AAoACgAA-29/08/2014 : Antoine Gelgon+AAoA--Creation of the Z+AAoA--All uppercases and lowercase were drawn." 
Version: 001.000
ItalicAngle: 0
UnderlinePosition: -100
UnderlineWidth: 50
Ascent: 800
Descent: 200
UFOAscent: 800
UFODescent: -200
LayerCount: 2
Layer: 0 0 "Arri+AOgA-re"  1
Layer: 1 0 "Avant"  0
FSType: 8
OS2Version: 0
OS2_WeightWidthSlopeOnly: 0
OS2_UseTypoMetrics: 0
CreationTime: 1407112779
ModificationTime: 1426460219
PfmFamily: 17
TTFWeight: 500
TTFWidth: 5
LineGap: 90
VLineGap: 0
OS2TypoAscent: 0
OS2TypoAOffset: 1
OS2TypoDescent: 0
OS2TypoDOffset: 1
OS2TypoLinegap: 90
OS2WinAscent: 0
OS2WinAOffset: 1
OS2WinDescent: 0
OS2WinDOffset: 1
HheadAscent: 0
HheadAOffset: 1
HheadDescent: 0
HheadDOffset: 1
OS2Vendor: 'PfEd'
Lookup: 3 0 0 "Substitution alternative dans Latin lookup 0"  {"Substitution alternative dans Latin lookup 0-1"  } ['    ' ('DFLT' <'dflt' > 'latn' <'dflt' > ) ]
Lookup: 1 15 0 "Substitution multiple dans Latin lookup 0"  {"Substitution multiple dans Latin lookup 0-1"  } ['a   ' ('a   ' <'dflt' > ) ]

StartChar: a
Encoding: 97 97 0
Width: 514
VWidth: 0
GlyphClass: 2
Flags: W
HStem: -10 45<112 235.846> 489 21<230.437 335.5>
VStem: 24 149<283.729 369.922> 26 138<50.5949 154.566> 306 134<34.6318 274.043 284.374 458.683>
LayerCount: 2
Fore
SplineSet
173 363 m 1xe8
 173 302 146 252 89 253 c 0
 54 253 23 277 24 311 c 0xe8
 24 334 37 361 63 393 c 0
 108 446 201 510 300 510 c 0
 371 510 415 482 433 430 c 0
 437 416 440 402 440 387 c 2
 440 62 l 2
 440 46 449 37 463 33 c 0
 471 31 483 35 497 45 c 1
 504 40 l 1
 488 19 444 -10 404 -10 c 0
 346.532 -10 308.039 15.6158 306.079 65.9233 c 1
 272.791 19.6264 199.569 -10 142 -10 c 0
 82 -10 26 32 26 91 c 1xd8
 24 175 117 213 176 240 c 0
 213.354 257.053 262.578 275.425 306 292.438 c 1
 306 430 l 2
 306 463 301 488 267 489 c 1
 212 489 172 465 172 410 c 1
 173 363 l 1xe8
306 91.756 m 1
 306 274.043 l 1
 226.053 247.631 160.475 222.808 164 125 c 0xd8
 165 81 173 35 227 35 c 0
 252.734 35 288.739 59.4173 306 91.756 c 1
EndSplineSet
Validated: 8912929
EndChar

StartChar: o
Encoding: 111 111 1
Width: 594
VWidth: 0
GlyphClass: 2
Flags: W
PickledData: "(dp1
S'com.fontlab.hintData'
p2
(dp3
S'vhints'
p4
((dp5
S'position'
p6
I10
sS'width'
p7
I162
s(dp8
g6
I384
sg7
I162
stp9
sS'hhints'
p10
((dp11
g6
I-12
sg7
I20
s(dp12
g6
I491
sg7
I17
stp13
ss."
HStem: -10 19<252.782 339.466> 493 17<254.504 337.729>
VStem: 29 162<145.16 356.074> 402 163<144.991 353.681>
LayerCount: 2
Fore
SplineSet
29 251 m 0
 29 325 55 386 107 436 c 0
 159 485 222 510 296 510 c 0
 370 510 434 485 486 436 c 0
 538 386 564 325 565 251 c 1
 564 175 538 113 486 64 c 0
 434 14 370 -10 296 -10 c 0
 222 -10 159 14 107 64 c 0
 55 113 29 175 29 251 c 0
296 493 m 0
 189.209 493 191 373.878 191 252 c 0
 191 127.969 188.678 9 296 9 c 0
 404.293 9 402 127.198 402 252 c 0
 402 374.787 403.714 493 296 493 c 0
EndSplineSet
Validated: 524321
EndChar

StartChar: r
Encoding: 114 114 2
Width: 467
VWidth: 0
GlyphClass: 2
Flags: W
PickledData: "(dp1
S'com.fontlab.hintData'
p2
(dp3
S'vhints'
p4
((dp5
S'position'
p6
I97
sS'width'
p7
I134
stp8
sS'hhints'
p9
((dp10
g6
I0
sg7
I8
s(dp11
g6
I480
sg7
I20
stp12
ss."
HStem: 0 8<52 64.3199 293.439 305> 414 96<292.237 407.5> 480 20G<224.5 245>
VStem: 111 134<22.1807 391.289>
LayerCount: 2
Fore
SplineSet
245 59 m 2xd0
 245 46 249 35 260 27 c 0
 269 20 279 15 290 12 c 2
 305 8 l 1
 305 0 l 1
 222.831 10.7295 139.832 10.7246 52 0 c 1
 52 2 52 5 51 8 c 1
 66 12 l 2
 77 14 87 19 96 27 c 1
 107 35 111 44 111 54 c 2
 111 320 l 2
 111 350 103 375 87 394 c 0
 71 413 50 426 24 433 c 1
 24 439 l 1
 78 447 120 455 151 463 c 0
 182 471 211 483 238 500 c 1xb0
 245 499 l 1
 245 369.422 l 1
 275.764 425.309 306.784 510 384 510 c 0
 431 510 457 474 457 427 c 0
 457 383 429 346 391 346 c 0
 356 346 330 365 313 404 c 0
 311 411 307 414 302 414 c 0
 282.473 414 261.132 367.301 245 330.686 c 1
 245 59 l 2xd0
EndSplineSet
Validated: 8912929
EndChar

StartChar: d
Encoding: 100 100 3
Width: 593
VWidth: 0
GlyphClass: 2
Flags: W
PickledData: "(dp1
S'com.fontlab.hintData'
p2
(dp3
S'vhints'
p4
((dp5
S'position'
p6
I10
sS'width'
p7
I145
s(dp8
g6
I366
sg7
I29
s(dp9
g6
I367
sg7
I137
stp10
sS'hhints'
p11
((dp12
g6
I-8
sg7
I51
s(dp13
g6
I36
sg7
I9
s(dp14
g6
I483
sg7
I24
stp15
ss."
HStem: -10 51<248.315 329.514> 36 12<556.452 581.996> 486 24<238.53 332.443> 781 20G<505 522>
VStem: 29 144<143.378 344.981> 384 138<68.9971 443.08 462.971 694.105> 582 1<38.0469 40.8594 43 44.907>
LayerCount: 2
Fore
SplineSet
299 739 m 1xbe
 342 746 372 751 388 754 c 0
 404 757 424 762 447 770 c 0
 471 778 495 788 515 801 c 1
 522 800 l 1
 522 108 l 2
 522 93 527 81 537 70 c 0
 547 60 557 52 567 48 c 0x7e
 577 44 582 43 582 45 c 1
 583 43 583 42 583 41 c 0xbe
 583 40 583 39 582 38 c 0
 582 37 581 36 581 36 c 1x7e
 560 38 527 34 482 24 c 0
 438 14 407 4 391 -4 c 1
 384 0 l 1
 384 66.2981 l 1
 357.212 15.2648 308.413 -9.99999 224 -10 c 0
 97 -10 29 101 29 232 c 0
 29 383 130 510 281 510 c 0
 325.666 510 361.002 492.469 384 462.971 c 1
 384 620 l 2
 384 651 379 676 363 695 c 0
 348 714 326 727 300 733 c 1
 299 739 l 1xbe
384 150.309 m 1
 384 354.458 l 1
 379.459 427.551 359.954 486 282 486 c 0
 210 486 173 413 173 273 c 0
 173 174 212 42 305 41 c 0xbe
 363.693 39.6957 379.857 90.277 384 150.309 c 1
EndSplineSet
Validated: 8912929
EndChar

StartChar: s
Encoding: 115 115 4
Width: 436
VWidth: 0
GlyphClass: 2
Flags: W
PickledData: "(dp1
S'com.fontlab.hintData'
p2
(dp3
S'vhints'
p4
((dp5
S'position'
p6
I47
sS'width'
p7
I8
stp8
sS'hhints'
p9
((dp10
g6
I-12
sg7
I18
s(dp11
g6
I490
sg7
I21
stp12
ss."
HStem: -10 18<214.575 280.62> 489 21<165.066 231.581>
VStem: 60 8<203.302 216> 308.047 101.953<78.99 127.352>
LayerCount: 2
Fore
SplineSet
138.25 436.75 m 1
 138.25 328 410 351.333 410 151.002 c 0
 410 65 325 -10 227 -10 c 0
 137 -10 57 36 57 36 c 1
 60 216 l 1
 68 216 l 1
 88 127 180 8 248 8 c 0
 307.713 8 308.047 69 308.047 69 c 1
 307.713 205 39.833 189.5 39.833 348.167 c 0
 39.833 421.5 118.995 510 227 510 c 0
 320 510 353 467 353 467 c 1
 368 324 l 1
 360 324 l 1
 296 443 237.012 489 195 489 c 0
 141.25 489 138.25 436.75 138.25 436.75 c 1
EndSplineSet
Validated: 524289
EndChar

StartChar: e
Encoding: 101 101 5
Width: 543
VWidth: 0
GlyphClass: 2
Flags: W
PickledData: "(dp1
S'com.fontlab.hintData'
p2
(dp3
S'vhints'
p4
((dp5
S'position'
p6
I10
sS'width'
p7
I343
stp8
sS'hhints'
p9
((dp10
g6
I-11
sg7
I100
s(dp11
g6
I288
sg7
I18
s(dp12
g6
I491
sg7
I17
stp13
ss."
HStem: -11 100<278.236 387.902> 288 18<174.099 375.948> 493 17<252.57 324.527>
VStem: 33 141.099<210.365 288 306 351.797> 375.948 134.052<306 377.35>
LayerCount: 2
Fore
SplineSet
33 249 m 0
 33 396 146 510 293 510 c 0
 425 510 510 384 510 288 c 1
 376 288 l 1
 174.099 288 l 1
 186.233 188.01 248.109 89 359 89 c 0
 396 89 455 93 499 163 c 1
 509 162 l 1
 509 158.917 465 -11 292 -11 c 0
 144 -11 33 100 33 249 c 0
172.452 306 m 1
 375.948 306 l 1
 375.331 397.113 368.034 493 293 493 c 0
 206.509 493 166.541 401.76 172.452 306 c 1
EndSplineSet
Validated: 524321
EndChar

StartChar: n
Encoding: 110 110 7
Width: 617
VWidth: 0
GlyphClass: 2
Flags: W
PickledData: "(dp1
S'com.fontlab.hintData'
p2
(dp3
S'vhints'
p4
((dp5
S'position'
p6
I97
sS'width'
p7
I134
s(dp8
g6
I213
sg7
I18
s(dp9
g6
I407
sg7
I134
stp10
sS'hhints'
p11
((dp12
g6
I0
sg7
I8
s(dp13
g6
I433
sg7
I6
s(dp14
g6
I480
sg7
I20
stp15
ss."
HStem: 0 8<39 51.6196 281.184 294 349 361.355 591.583 603> 433 6<13 21.9637> 480 20G<194.5 234>
VStem: 99 135<22.2129 391.806> 409 135<22.1807 420.47>
LayerCount: 2
Fore
SplineSet
13 439 m 1
 110 454 162 460 227 500 c 1
 234 499 l 1
 234 424.321 l 1
 461.519 591.393 543 488.618 543 365 c 2
 544 59 l 1
 543 46 548 35 559 27 c 0
 568 20 578 15 589 12 c 2
 604 8 l 1
 603 5 603 2 603 0 c 1
 521.999 11.3584 436.999 11.4258 349 0 c 1
 349 8 l 1
 364 12 l 2
 374 14 384 19 394 27 c 0
 404 35 409 44 409 54 c 2
 409 316 l 2
 409 524.855 282.848 434.588 234 391.806 c 1
 234 59 l 1
 233 33 258 17 279 12 c 2
 294 8 l 1
 294 0 l 1
 203.216 11.6455 104.252 9.75879 39 0 c 0
 38.9082 -0.0527344 39 8 39 8 c 1
 54 12 l 2
 72 16 100 33 99 54 c 1
 100 320 l 2
 100 383 64 420 13 433 c 1
 13 439 l 1
EndSplineSet
Validated: 8912929
EndChar

StartChar: f
Encoding: 102 102 8
Width: 364
VWidth: 0
GlyphClass: 2
Flags: W
PickledData: "(dp1
S'com.fontlab.hintData'
p2
(dp3
S'vhints'
p4
((dp5
S'position'
p6
I70
sS'width'
p7
I133
s(dp8
g6
I223
sg7
I121
stp9
sS'hhints'
p10
((dp11
g6
I0
sg7
I8
s(dp12
g6
I434
sg7
I7
s(dp13
g6
I637
sg7
I170
stp14
ss."
HStem: 0 8<20 31.8261 261.906 274> 434 46<216 299> 776.661 30.339<208.689 287>
VStem: 80 133<27.3866 434> 233 121<650.434 764.05>
LayerCount: 2
Fore
SplineSet
213 434 m 1
 213 59 l 1
 213 59 218 35 229 27 c 0
 238 20 248 15 259 12 c 2
 274 8 l 1
 274 0 l 1
 187.89 10.7334 104.11 10.6943 20 0 c 1
 20 8 l 1
 35 12 l 2
 45 14 55 19 65 27 c 0
 75 35 80 44 80 54 c 2
 80 434 l 1
 24 434 l 1
 24 443 l 1
 105 555 130 807 258 807 c 0
 316 807 354 744 354 701 c 1
 353 662 328 637 297 637 c 0
 264 637 233 650 233 696 c 0
 233 726.667 253.667 776.661 219.347 776.661 c 0
 208.333 776.661 184.398 764.625 180 720 c 1
 180 628 216 542 216 480 c 1
 312 480 l 1
 299 434 l 1
 213 434 l 1
EndSplineSet
Validated: 524321
EndChar

StartChar: c
Encoding: 99 99 9
Width: 532
VWidth: 0
GlyphClass: 2
Flags: W
PickledData: "(dp1
S'com.fontlab.hintData'
p2
(dp3
S'vhints'
p4
((dp5
S'position'
p6
I329
sS'width'
p7
I132
stp8
sS'hhints'
p9
((dp10
g6
I-11
sg7
I100
s(dp11
g6
I491
sg7
I17
stp12
ss."
HStem: -10 100<277.309 387.633> 493 17<254.592 322.581>
VStem: 352 132<270.951 408.633>
LayerCount: 2
Fore
SplineSet
352 368 m 1
 336 300 372 254 416 254 c 0
 446 254 484 268 484 330 c 0
 484 407 417 510 295 510 c 0
 148 510 34 397 33 249 c 1
 33 100 144 -10 292 -10 c 0
 463 -10 509 162 509 162 c 1
 499 163 l 1
 455 93 396 90 359 90 c 0
 135 90 111 493 293 493 c 1
 327 494 373 465 352 368 c 1
EndSplineSet
Validated: 41
EndChar

StartChar: p
Encoding: 112 112 10
Width: 599
VWidth: 0
GlyphClass: 2
Flags: W
PickledData: "(dp1
S'com.fontlab.hintData'
p2
(dp3
S'vhints'
p4
((dp5
S'position'
p6
I97
sS'width'
p7
I134
s(dp8
g6
I202
sg7
I29
s(dp9
g6
I418
sg7
I152
stp10
sS'hhints'
p11
((dp12
g6
I-112
sg7
I8
s(dp13
g6
I-11
sg7
I19
s(dp14
g6
I434
sg7
I6
s(dp15
g6
I437
sg7
I63
stp16
ss."
HStem: -160.666 8<36 48.3552 279.449 291> -11 19<276.419 348.085> 433 6<9 17.9666> 447 63<272.292 450> 480 20G<191.5 231>
VStem: 96 135<-137.958 24.3871 39.2433 390.913> 418 152<154.711 353.119>
LayerCount: 2
Fore
SplineSet
386 510 m 0xf6
 514 510 570 397 570 267 c 0
 570 120 467 -11 321 -11 c 0
 280.236 -11 250.541 1.48141 231 24.3871 c 1
 231 -101.666 l 1
 230 -127.666 255 -142.666 276 -148.666 c 2
 291 -152.666 l 1
 291 -160.666 l 1
 209 -150.335 124 -150.33 36 -160.666 c 1
 36 -158.666 36 -155.666 35 -152.666 c 1
 50 -148.666 l 2
 68 -144.666 97 -127.666 96 -106.666 c 1
 96 320 l 2
 96 383 60 420 9 433 c 1
 9 439 l 1
 106 454 159 461 224 500 c 1xee
 231 499 l 1
 231 410.451 l 1
 260.635 475.031 313.195 510 386 510 c 0xf6
231 117.384 m 1
 235.242 54.8542 253.31 8 319 8 c 0
 396 8 418 159 418 224 c 0
 418 407 324 447 292 447 c 0xf6
 252.585 447 236.728 403.845 231 357.208 c 1
 231 243 l 1
 231 117.384 l 1
EndSplineSet
Validated: 8912929
EndChar

StartChar: b
Encoding: 98 98 11
Width: 617
VWidth: 0
GlyphClass: 2
Flags: W
PickledData: "(dp1
S'com.fontlab.hintData'
p2
(dp3
S'vhints'
p4
((dp5
S'position'
p6
I95
sS'width'
p7
I7
s(dp8
g6
I203
sg7
I30
s(dp9
g6
I444
sg7
I145
stp10
sS'hhints'
p11
((dp12
g6
I-4
sg7
I24
s(dp13
g6
I460
sg7
I51
stp14
ss."
HStem: -11 23<286.366 376.972> 460 51<285.213 368.097> 733 6<9 17.7727> 781 20G<190.802 231>
VStem: 95 7<0 3.65702> 96 135.524<58.4351 429.429 433.908 691.895> 443 145<154.332 358.528>
LayerCount: 2
Fore
SplineSet
392 511 m 0xf6
 520 511 588 401 588 271 c 0
 588 119 488 -11 336 -11 c 0
 223 -11 210.667 52.9971 161 53 c 0
 127.333 53 102 -2.33301 102 -4 c 1
 95 0 l 1xfa
 96 620 l 2
 96 682.312 60.9824 721.448 9 733 c 1
 9 739 l 1
 103.842 754.807 157.605 759.898 224 801 c 1
 231 800 l 1
 231.524 433.908 l 1
 258.301 485.534 307.293 511 392 511 c 0xf6
231.825 223.187 m 2
 231.893 175.933 l 1
 233.477 88.6137 246.916 12 334 12 c 0
 407 12 443 89 443 230 c 0
 443 328 405 458 311 460 c 0
 241.07 460.786 232.26 388.105 231.695 314.234 c 2
 231.728 291.058 l 2
 231.826 278.744 232 266.611 232 255 c 0
 232 244.486 231.906 233.844 231.825 223.187 c 2
EndSplineSet
Validated: 524321
EndChar

StartChar: g
Encoding: 103 103 12
Width: 516
VWidth: 0
GlyphClass: 2
Flags: W
PickledData: "(dp1
S'com.fontlab.hintData'
p2
(dp3
S'vhints'
p4
((dp5
S'position'
p6
I10
sS'width'
p7
I60
s(dp8
g6
I29
sg7
I152
s(dp9
g6
I300
sg7
I152
stp10
sS'hhints'
p11
((dp12
g6
I-112
sg7
I17
s(dp13
g6
I0
sg7
I142
s(dp14
g6
I189
sg7
I14
s(dp15
g6
I500
sg7
I7
s(dp16
g6
I523
sg7
I139
stp17
ss."
HStem: -163 19<162.022 353.983> -35.1417 20G<112.72 138.789> -25 142<139.586 373.643> 192 14<232.138 275.642> 494 15.8995<230.233 249.185 266.024 278.497> 523 139<327.215 437.64>
VStem: 24 60<-112.144 -36.0728> 43 152<275.021 417.974> 314 152<274.972 418.268>
LayerCount: 2
Fore
SplineSet
254 206 m 0x9d80
 210 206 195 270 195 346 c 1
 194 417 202 494 254 494 c 0
 306 494 314 417 314 346 c 0
 314 270 298 206 254 206 c 0x9d80
247.222 509.9 m 1
 158.049 507.275 43 453.236 43 345 c 0xbd80
 43 269.368 103.455 224.213 170.685 204.238 c 1
 55.3701 152.889 38.0177 94.3996 39 61 c 0
 39 29.1708 56.1976 8.67643 86.1005 -4.28444 c 1
 57.2788 -23.3602 24 -48.5987 24 -80 c 0
 25 -151 189 -163 251 -163 c 0
 466 -163 506 -76 506 0 c 0
 506 89 437 117 338 117 c 2
 157 117 l 2xbe80
 97.6717 117 181.051 182.081 200.923 196.985 c 1
 219.038 193.628 237.067 192 254 192 c 0
 343 192 466 238 466 345 c 0
 466 451.079 353.664 505.1 266.024 509.681 c 1
 270.827 528.861 285.145 568.236 319 549 c 1
 344 533 353 523 394 523 c 0
 429 523 456 557 456 595 c 0
 456 642 420 662 389 662 c 0
 292.153 662 255.93 545.084 247.222 509.9 c 1
121.294 -15.1417 m 1
 156.283 -22.6942 200.677 -25 251 -25 c 0
 391 -25 411 -72 410 -93 c 1
 410 -117 377 -144 251 -144 c 0
 193 -144 84 -131 84 -79 c 0xbe80
 84 -49.4108 104.147 -31.9096 121.294 -15.1417 c 1
EndSplineSet
Validated: 8912937
EndChar

StartChar: t
Encoding: 116 116 13
Width: 371
VWidth: 0
GlyphClass: 2
Flags: W
PickledData: "(dp1
S'com.fontlab.hintData'
p2
(dp3
S'vhints'
p4
((dp5
S'position'
p6
I66
sS'width'
p7
I133
stp8
sS'hhints'
p9
((dp10
g6
I-4
sg7
I40
s(dp11
g6
I462
sg7
I7
stp12
ss."
HStem: -10 40<153 305.426> 462 46<216 314>
VStem: 79 134<55.2418 462>
LayerCount: 2
Fore
SplineSet
205 668 m 1
 215 668 l 1
 215 668 216 554 216 508 c 1
 327 508 l 1
 314 462 l 1
 212.022 462 l 1
 213 144 l 1
 216 57 244 30 282 30 c 0
 324 30 354 61 353 62 c 2
 361 56 l 1
 361 56 318 -10 220 -10 c 0
 86 -10 79 106 79 139 c 2
 79 462 l 1
 24 462 l 1
 24 471 l 1
 24 471 125 544 205 668 c 1
EndSplineSet
Validated: 524321
EndChar

StartChar: m
Encoding: 109 109 14
Width: 928
VWidth: 0
GlyphClass: 2
Flags: W
PickledData: "(dp1
S'com.fontlab.hintData'
p2
(dp3
S'vhints'
p4
((dp5
S'position'
p6
I97
sS'width'
p7
I134
s(dp8
g6
I213
sg7
I18
s(dp9
g6
I407
sg7
I134
s(dp10
g6
I524
sg7
I17
s(dp11
g6
I718
sg7
I134
stp12
sS'hhints'
p13
((dp14
g6
I0
sg7
I8
s(dp15
g6
I433
sg7
I6
s(dp16
g6
I480
sg7
I20
stp17
ss."
HStem: 0 8<41 53.3425 282.462 294 349 361.355 591.583 603 660 672.349 901.589 913> 433 6<13 21.9637> 480 20G<194.5 234>
VStem: 100 134<22.2129 391.661> 409 135<22.1807 386.713> 720 134<22.1807 419.056>
LayerCount: 2
Fore
SplineSet
13 439 m 1
 110 454 162 460 227 500 c 1
 234 499 l 1
 234 422.321 l 1
 427.269 564.243 515.159 511.446 537.24 416.561 c 1
 770.669 591.71 854 488.014 854 363 c 2
 854 59 l 1
 853 46 858 35 869 27 c 0
 878 20 888 15 899 12 c 2
 914 8 l 1
 913 5 913 2 913 0 c 1
 832 10 748 10 660 0 c 1
 660 8 l 1
 675 12 l 2
 685 14 695 19 705 27 c 0
 715 35 720 44 720 54 c 2
 720 314 l 2
 720 527.403 588.295 428.515 541.921 387.082 c 1
 542.647 379.193 543 371.142 543 363 c 2
 544 59 l 1
 543 46 548 35 559 27 c 0
 568 20 578 15 589 12 c 2
 604 8 l 1
 603 5 603 2 603 0 c 1
 522 10 437 10 349 0 c 1
 349 8 l 1
 364 12 l 2
 374 14 384 19 394 27 c 0
 404 35 409 44 409 54 c 2
 409 314 l 2
 409 522.855 282.848 432.588 234 389.806 c 1
 234 59 l 1
 233 33 258 17 279 12 c 2
 294 8 l 1
 294 0 l 1
 212 10 129 10 41 0 c 1
 41 2 41 5 40 8 c 1
 55 12 l 2
 73 16 101 33 100 54 c 1
 100 320 l 2
 100 383 64 420 13 433 c 1
 13 439 l 1
EndSplineSet
Validated: 8912929
EndChar

StartChar: i
Encoding: 105 105 15
Width: 301
VWidth: 0
GlyphClass: 2
Flags: W
PickledData: "(dp1
S'com.fontlab.hintData'
p2
(dp3
S'vhints'
p4
((dp5
S'position'
p6
I90
sS'width'
p7
I167
s(dp8
g6
I97
sg7
I134
stp9
sS'hhints'
p10
((dp11
g6
I0
sg7
I8
s(dp12
g6
I433
sg7
I6
s(dp13
g6
I480
sg7
I20
s(dp14
g6
I636
sg7
I176
stp15
ss."
HStem: 0 8<37 48.8312 278.945 291> 433 6<10 18.9637> 481 20G<191.5 231> 636 175<117.804 228.626>
VStem: 90 167<665.069 782.081> 96 135<22.2129 393.474>
LayerCount: 2
Fore
SplineSet
10 439 m 1xf4
 107 454 159 461 224 501 c 1
 231 500 l 1
 231 59 l 1
 230 33 255 17 276 12 c 2
 291 8 l 1
 291 0 l 1
 205.195 10.7272 121.135 10.7226 37 0 c 1
 37 2 37 5 36 8 c 1
 51 12 l 2
 69 16 97 33 96 54 c 1
 97 320 l 2
 97 383 61 420 10 433 c 1
 10 439 l 1xf4
90 724 m 0xf8
 90 771 125 811 173 811 c 0
 221 811 257 771 257 724 c 0
 257 676 221 636 173 636 c 0
 125 636 90 676 90 724 c 0xf8
EndSplineSet
Validated: 8912929
EndChar

StartChar: h
Encoding: 104 104 16
Width: 614
VWidth: 0
GlyphClass: 2
Flags: W
PickledData: "(dp1
S'com.fontlab.hintData'
p2
(dp3
S'vhints'
p4
((dp5
S'position'
p6
I65
sS'width'
p7
I134
s(dp8
g6
I180
sg7
I19
s(dp9
g6
I374
sg7
I134
stp10
sS'hhints'
p11
((dp12
g6
I0
sg7
I8
s(dp13
g6
I780
sg7
I20
stp14
ss."
HStem: 0 8<37 51.8263 277.328 290 347 362 586 601> 733.011 6<10 18.9637> 780.011 20G<191.5 231>
VStem: 97 134<22.1807 407.585 422.586 691.672> 407 134<22.6934 419.546>
LayerCount: 2
Fore
SplineSet
541 364 m 2
 541 59 l 2
 541 46 545 35 556 27 c 0
 566 20 576 15 586 12 c 2
 601 8 l 1
 601 0 l 1
 516.854 -0.277344 431.912 0.293945 347 0 c 1
 347 8 l 1
 362 12 l 2
 372 14 382 19 392 27 c 0
 402 35 407 44 407 54 c 2
 407 315 l 2
 406.189 525.17 278.949 432.439 231 390.004 c 1
 231 59 l 2
 231.018 46 235 35 246 27 c 0
 255 20 265 15 276 12 c 2
 291 8 l 1
 290 5 290 2 290 0 c 1
 199.577 10.7168 115.755 10.7031 37 0 c 1
 37 8 l 1
 52 12 l 2
 62 14 72 19 82 27 c 0
 92 35 97 44 97 54 c 2
 97 620.011 l 2
 97 683.011 61 720.011 10 733.011 c 1
 10 739.011 l 1
 107 754.011 159 760.011 224 800.011 c 1
 231 799.011 l 1
 231 422.586 l 1
 459.28 590.694 541 487.799 541 364 c 2
EndSplineSet
Validated: 8912929
EndChar

StartChar: l
Encoding: 108 108 17
Width: 301
VWidth: 0
GlyphClass: 2
Flags: HMW
PickledData: "(dp1
S'com.fontlab.hintData'
p2
(dp3
S'vhints'
p4
((dp5
S'position'
p6
I97
sS'width'
p7
I134
stp8
sS'hhints'
p9
((dp10
g6
I0
sg7
I8
s(dp11
g6
I780
sg7
I20
stp12
ss."
VStem: 96 135<46 159 620 693.201>
LayerCount: 2
Fore
SplineSet
231 59 m 2
 231 46 235 35 246 27 c 0
 255 20 265 15 276 12 c 2
 291 8 l 1
 291 0 l 1
 208.55 10.7188 124.56 10.7031 37 0 c 1
 37 2 37 5 36 8 c 1
 51 12 l 2
 62 14 72 19 81 27 c 1
 92 35 96 44 96 54 c 2
 97 620 l 2
 97 651 89 676 73 695 c 0
 57 714 36 726 10 733 c 1
 10 739 l 1
 64 747 106 756 137 764 c 0
 168 771 197 783 224 799 c 1
 231 799 l 1
 231 59 l 2
EndSplineSet
Validated: 524321
EndChar

StartChar: q
Encoding: 113 113 18
Width: 591
VWidth: 0
GlyphClass: 2
Flags: W
PickledData: "(dp1
S'com.fontlab.hintData'
p2
(dp3
S'vhints'
p4
((dp5
S'position'
p6
I10
sS'width'
p7
I145
s(dp8
g6
I367
sg7
I28
s(dp9
g6
I497
sg7
I7
stp10
sS'hhints'
p11
((dp12
g6
I-112
sg7
I8
s(dp13
g6
I-8
sg7
I51
s(dp14
g6
I483
sg7
I24
stp15
ss."
HStem: -160.666 8<326 338.355 568.583 580> -10 51<248.315 329.029> 483 20G<515 522> 486 24<238.53 331.348>
VStem: 29 144<143.378 344.981> 385 137<-137.608 68.2352 71.2161 442.298> 515 7<495.343 499>
LayerCount: 2
Fore
SplineSet
224 -10 m 0xec
 97 -10 29 101 29 232 c 0
 29 383 130 510 281 510 c 0xdc
 394 510 406.333 446.003 456 446 c 0
 489.667 446 515 501.333 515 503 c 1
 522 499 l 1xea
 522 -101.666 l 2
 522 -127.666 545 -142.666 566 -148.666 c 2
 581 -152.666 l 1
 581 -155.666 580 -158.666 580 -160.666 c 1
 499 -150.666 414 -150.666 326 -160.666 c 1
 326 -152.666 l 1
 341 -148.666 l 2
 358 -144.666 386 -124.666 385 -104.666 c 1
 385 68.2352 l 1
 358.434 15.904 309.474 -10 224 -10 c 0xec
385 248 m 1
 385 330.42 l 1
 382.979 414.302 368.338 486 282 486 c 0
 210 486 173 413 173 273 c 0
 173 174 212 42 305 41 c 0
 370.455 39.5455 383.017 102.62 385 171.368 c 1
 385 247.864 l 1
 385 248 l 1
EndSplineSet
Validated: 8912929
EndChar

StartChar: j
Encoding: 106 106 19
Width: 357
VWidth: 0
GlyphClass: 2
Flags: W
PickledData: "(dp1
S'com.fontlab.hintData'
p2
(dp3
S'vhints'
p4
((dp5
S'position'
p6
I10
sS'width'
p7
I121
s(dp8
g6
I131
sg7
I167
s(dp9
g6
I138
sg7
I134
stp10
sS'hhints'
p11
((dp12
g6
I-116
sg7
I170
s(dp13
g6
I433
sg7
I6
s(dp14
g6
I636
sg7
I176
stp15
ss."
HStem: -160.667 32.334<126.449 146> 433 6<50 59.0545> 636 175<158.234 268.626>
VStem: 10 121.337<-117.509 -3.46069> 131 166<665.069 782.081> 138 133<15.1422 89.333 320 389.811>
LayerCount: 2
Fore
SplineSet
131 724 m 0xe8
 131 771 165 811 213 811 c 0
 261 811 297 771 297 724 c 0
 297 676 261 636 213 636 c 0
 165 636 131 676 131 724 c 0xe8
271 75.333 m 2xf4
 271 500 l 1
 264 501 l 1
 200 461 148 454 50 439 c 1
 50 433 l 1
 102 420 136.727 382.999 137 320 c 2
 138 89.333 l 2
 138 33.333 184.341 -10.334 184.341 -76.334 c 1
 178.625 -127.035 143.228 -128.333 146 -128.333 c 1
 111 -128.333 131.337 -75 131.337 -50.667 c 0
 131.337 -4.66699 100 9.33301 67 9.33301 c 1
 31 7.33301 10 -16.667 10 -54.667 c 0
 10 -97.667 48 -160.667 106 -160.667 c 0
 234 -160.667 271 7.33301 271 75.333 c 2xf4
EndSplineSet
Validated: 8912937
EndChar

StartChar: u
Encoding: 117 117 20
Width: 621
VWidth: 0
GlyphClass: 2
Flags: W
PickledData: "(dp1
S'com.fontlab.hintData'
p2
(dp3
S'vhints'
p4
((dp5
S'position'
p6
I70
sS'width'
p7
I134
s(dp8
g6
I380
sg7
I134
stp9
sS'hhints'
p10
((dp11
g6
I-1
sg7
I21
s(dp12
g6
I39
sg7
I9
s(dp13
g6
I492
sg7
I8
stp14
ss."
HStem: 36 12<581.452 606.996> 480 20G<213.5 235 523.5 545>
VStem: 101 134<80.3199 391.437> 409.339 135.661<65.4666 76.1946 91.3537 394.201> 607 1<38.0469 40.8594 43 44.907>
LayerCount: 2
Fore
SplineSet
235 500 m 1
 235 185.679 l 2
 235 -21.4391 360.024 66.167 409.339 108.779 c 1
 409.559 179.519 409.78 250.26 410 321 c 0
 410.07 352 402 377 386 396 c 0
 370 415 349 427 323 434 c 1
 323 440 l 1
 377 448 419 457 450 465 c 0
 481 472 510 484 537 500 c 1
 545 500 l 1
 545 109 l 2
 545 95 552 81 562 70 c 0
 572 60 582 52 592 48 c 0
 602 44 607 43 607 45 c 1
 608 43 608 42 608 41 c 0
 608 40 608 39 607 38 c 0
 607 37 606 36 606 36 c 1
 585 38 552 34 507 24 c 0
 463 14 432 4 416 -4 c 1
 409 0 l 1
 409.237 76.1946 l 1
 182.336 -89.2711 101.672 11.5487 101 136 c 2
 100 321 l 2
 99.8984 352 92 377 76 396 c 0
 60 415 39 427 13 434 c 1
 13 440 l 1
 67 448 109 457 140 465 c 0
 171 472 200 484 227 500 c 1
 235 500 l 1
EndSplineSet
Validated: 524321
EndChar

StartChar: v
Encoding: 118 118 21
Width: 628
VWidth: 0
GlyphClass: 2
Flags: W
PickledData: "(dp1
S'com.fontlab.hintData'
p2
(dp3
S'hhints'
p4
((dp5
S'position'
p6
I492
sS'width'
p7
I8
stp8
ss."
HStem: 487 13<237.019 249> 492 8<363 378.925 594.871 617>
LayerCount: 2
Fore
SplineSet
269.857 -10.001 m 1
 348.818 149.824 l 1
 340.376 171.885 l 1
 259.091 -1.72754 l 1
 262.475 -10.001 l 1
 262.37 -10.001 l 1x00
269.857 -10.001 m 1
 262.475 -10.001 l 1
269.857 -10.001 m 1
 433 319 l 1
 433 319 518 491 618 492 c 1
 618 492 617 497 617 500 c 1
 536 489 451 489 363 500 c 1
 363 492 l 1x40
 363 492 484.119 478.9 413 327 c 2
 340.376 171.885 l 1
 237 442 l 2
 227.045 468.013 228 482 249 487 c 1x80
 264 492 l 1
 264 500 l 1
 182 489 98 489 10 500 c 1
 10 492 l 1x40
 25 487 l 1x80
 42 483 61.1201 467.051 70 446 c 2
 262.37 -10.001 l 1
 269.857 -10.001 l 1
EndSplineSet
Validated: 8912939
EndChar

StartChar: w
Encoding: 119 119 22
Width: 987
VWidth: 0
GlyphClass: 2
Flags: W
PickledData: "(dp1
S'com.fontlab.hintData'
p2
(dp3
S'hhints'
p4
((dp5
S'position'
p6
I492
sS'width'
p7
I8
stp8
ss."
HStem: 492 8<363 380.814 722.5 738.965 949.828 976.5>
LayerCount: 2
Fore
SplineSet
269.857 -10.001 m 1
 262.475 -10.001 l 1
269.857 -10.001 m 1
 262.37 -10.001 l 1
 70 446 l 2
 61.1201 467.051 42 483 25 487 c 1
 10 492 l 1
 10 500 l 1
 98 489 182 489 264 500 c 1
 264 492 l 1
 249 487 l 1
 228 482 227.045 468.013 237 442 c 2
 340.376 171.885 l 1
 413 327 l 2
 484.119 478.889 363 492 363 492 c 1
 363 500 l 1
 407 494.5 450.25 491.75 492.625 491.75 c 0
 535 491.75 576.5 494.5 617 500 c 1
 617 497 618 492 618 492 c 1
 603 487 l 1
 582 482 580.782 468.317 591 442 c 2
 699.876 171.885 l 1
 772.5 327 l 2
 843.619 478.9 722.5 492 722.5 492 c 1
 722.5 500 l 1
 810.5 489 895.5 489 976.5 500 c 1
 976.5 497 977.5 492 977.5 492 c 1
 877.5 491 792.5 319 792.5 319 c 1
 629.372 -10.001 l 1
 621.416 -10.1826 l 1
 567.988 116.167 515.03 241.115 461.468 367.861 c 1
 443.503 340.253 433 319 433 319 c 1
 269.857 -10.001 l 1
EndSplineSet
Validated: 524323
EndChar

StartChar: x
Encoding: 120 120 23
Width: 609
VWidth: 0
GlyphClass: 2
Flags: W
PickledData: "(dp1
S'com.fontlab.hintData'
p2
(dp3
S'hhints'
p4
((dp5
S'position'
p6
I0
sS'width'
p7
I8
s(dp8
g6
I495
sg7
I8
stp9
ss."
HStem: 0 8<251.645 264 345 356.417 586.645 599> 495 8<334 342.241 565.114 588>
LayerCount: 2
Fore
SplineSet
535 59 m 1
 535 59 562 18 584 12 c 2
 599 8 l 1
 599 0 l 1
 511 10 426 10 345 0 c 1
 345 8 l 1
 360 12 l 2
 380 17 387.266 37.4355 372 58 c 2
 271.608 193.236 l 1
 245 159 l 1
 152.5 21.833 264 8 264 8 c 1
 264 0 l 1
 176 10 91 10 10 0 c 1
 11 2 10 8 10 8 c 1
 109 9 219 159 219 159 c 1
 259.041 210.164 l 1
 81 450 l 2
 66 470 53 487 36 491 c 1
 21 496 l 1
 21 504 l 1
 109 493 193 493 275 504 c 1
 275 496 l 1
 260 491 l 1
 239 486 230 471 248 446 c 2
 343.173 317.666 l 1
 363 343 l 1
 448 466 334 495 334 495 c 1
 334 503 l 1
 422 492 507 492 588 503 c 1
 588 500 589 495 589 495 c 1
 496 495 388 343 388 343 c 1
 355.448 301.114 l 1
 535 59 l 1
EndSplineSet
Validated: 8912929
EndChar

StartChar: y
Encoding: 121 121 24
Width: 628
VWidth: 0
GlyphClass: 2
Flags: W
PickledData: "(dp1
S'com.fontlab.hintData'
p2
(dp3
S'vhints'
p4
((dp5
S'position'
p6
I49
sS'width'
p7
I122
stp8
sS'hhints'
p9
((dp10
g6
I-138
sg7
I147
s(dp11
g6
I0
sg7
I21
s(dp12
g6
I492
sg7
I8
stp13
ss."
HStem: -138 81.5908<117.5 221.301> 487 13<237.019 249> 492 8<363 378.925 594.871 617>
LayerCount: 2
Fore
SplineSet
288.26 27.0835 m 1xc0
 433 319 l 1
 433 319 518 491 618 492 c 1
 618 492 617 497 617 500 c 1
 536 489 451 489 363 500 c 1
 363 492 l 1xa0
 363 492 484.119 478.9 413 327 c 2
 340.376 171.885 l 1
 237 442 l 2
 227.045 468.013 228 482 249 487 c 1xc0
 264 492 l 1
 264 500 l 1
 182 489 98 489 10 500 c 1
 10 492 l 1xa0
 25 487 l 1
 42 483 61.1201 467.051 70 446 c 2
 257.769 0.904829 l 1
 247.575 -24.9914 231.148 -56.4092 211.454 -56.4092 c 0
 199.455 -56.4092 183.955 -51.25 178 -30 c 1
 178 -30 170.955 9 121 9 c 0
 93 9 56 -8 56 -55 c 0
 56 -112 99 -138 136 -138 c 0
 221.37 -138 269.218 -10.87 269.865 -10.001 c 2
 269.872 -10.001 l 1
 287.43 25.4104 l 2
 287.705 25.9621 287.982 26.5196 288.261 27.083 c 2
 288.26 27.0835 l 1xc0
EndSplineSet
Validated: 8912937
EndChar

StartChar: T
Encoding: 84 84 25
Width: 794
VWidth: 0
GlyphClass: 2
Flags: W
PickledData: "(dp1
S'com.fontlab.hintData'
p2
(dp3
S'vhints'
p4
((dp5
S'position'
p6
I27
sS'width'
p7
I8
s(dp8
g6
I326
sg7
I174
s(dp9
g6
I793
sg7
I8
stp10
sS'hhints'
p11
((dp12
g6
I0
sg7
I8
s(dp13
g6
I779
sg7
I19
stp14
ss."
HStem: 0 8<216 229.723 561.545 575> 781.678 18.3221<258.03 309 483 534.333> 794 20G<58.259 398 398 735.741>
VStem: 309 174<40.4903 781.678> 776 8<536 548.287>
LayerCount: 2
Fore
SplineSet
216 0 m 1xb8
 216 8 l 1
 216 8 309 22 309 85 c 2
 309 781.678 l 1xd8
 78.4641 762.282 18 536 18 536 c 2
 10 536 l 1
 62 814 l 1xb8
 62 814 102 800 398 800 c 0xd8
 694 800 732 814 732 814 c 1
 784 536 l 1
 776 536 l 1
 776 536 715.186 763.59 483 781.841 c 1
 483 85 l 2
 483 21 575 8 575 8 c 1
 575 0 l 1
 483 21 310 19 216 0 c 1xb8
EndSplineSet
Validated: 8912929
EndChar

StartChar: L
Encoding: 76 76 26
Width: 717
VWidth: 0
GlyphClass: 2
Flags: W
PickledData: "(dp1
S'com.fontlab.hintData'
p2
(dp3
S'vhints'
p4
((dp5
S'position'
p6
I132
sS'width'
p7
I174
stp8
sS'hhints'
p9
((dp10
g6
I0
sg7
I8
s(dp11
g6
I0
sg7
I21
s(dp12
g6
I792
sg7
I8
stp13
ss."
HStem: 0 16.9854<331.141 453.718> 0 8<27 43.1994> 792 8<26 42.358 371.228 386>
VStem: 120 174<39.2957 760.775>
LayerCount: 2
Fore
SplineSet
380.5 0 m 0xb0
 262.771 0 147.372 0 27 0 c 1
 27 8 l 1x70
 27 8 120 22 120 85 c 2
 120 715 l 2
 119.9 778 26 792 26 792 c 1
 26 800 l 1
 112.957 783.225 284.089 780.815 386 800 c 1
 386 792 l 1
 386 792 293.898 778 294 715 c 2
 294 85 l 2
 294 20.7678 354.924 16.9901 380.452 16.9854 c 2xb0
 380.5 16.9854 l 2
 663.5 16.9854 698 284.993 698 284.993 c 1
 707.341 284.993 l 1
 666.002 0 l 1x70
 552.835 0 493.667 0 380.5 0 c 0xb0
EndSplineSet
Validated: 8912929
EndChar

StartChar: H
Encoding: 72 72 27
Width: 891
VWidth: 0
GlyphClass: 2
Flags: W
PickledData: "(dp1
S'com.fontlab.hintData'
p2
(dp3
S'vhints'
p4
((dp5
S'position'
p6
I118
sS'width'
p7
I174
s(dp8
g6
I204
sg7
I88
s(dp9
g6
I596
sg7
I174
stp10
sS'hhints'
p11
((dp12
g6
I0
sg7
I8
s(dp13
g6
I403
sg7
I31
s(dp14
g6
I792
sg7
I8
stp15
ss."
HStem: 0 8<26 42.1994 371.336 386 505 521.199 850.336 865> 403 31<293 598> 792 8<26 42.1994 370.882 386 505 521.199 849.882 865>
VStem: 119 174<40.4903 403 434 760.775> 598 174<40.4903 403 434 760.775>
LayerCount: 2
Fore
SplineSet
119 85 m 2
 119 715 l 2
 119 778 26 792 26 792 c 1
 26 800 l 1
 110.917 782.841 281.478 781.08 386 800 c 1
 386 792 l 1
 386 792 293 778 293 715 c 2
 293 434 l 1
 598 434 l 1
 598 715 l 2
 598 778 505 792 505 792 c 1
 505 800 l 1
 589.917 782.842 760.479 781.079 865 800 c 1
 865 792 l 1
 865 792 772 778 772 715 c 2
 772 85 l 2
 772 21 865 8 865 8 c 1
 865 0 l 1
 763.868 20.9863 593.205 18.9893 505 0 c 1
 505 8 l 1
 505 8 598 22 598 85 c 2
 598 403 l 1
 293 403 l 1
 293 85 l 2
 293 21 386 8 386 8 c 1
 386 0 l 1
 284.868 20.9863 114.205 18.9893 26 0 c 1
 26 8 l 1
 26 8 119 22 119 85 c 2
EndSplineSet
Validated: 8912929
EndChar

StartChar: k
Encoding: 107 107 28
Width: 666
VWidth: 0
Flags: W
HStem: 0 8<57 71.8263 297.328 310 402.5 413.872 644.101 656.5> 495 8<597.898 616.5> 733.011 6<30 38.9637> 780.011 20G<211.5 251>
VStem: 117 134<22.1807 219.568 239.445 691.672>
LayerCount: 2
Fore
SplineSet
287.078 249.855 m 1
 251 219.568 l 1
 251 59 l 2
 251.018 46 255 35 266 27 c 0
 275 20 285 15 296 12 c 2
 311 8 l 1
 310 5 310 2 310 0 c 1
 219.577 10.7168 135.755 10.7031 57 0 c 1
 57 8 l 1
 72 12 l 2
 82 14 92 19 102 27 c 0
 112 35 117 44 117 54 c 2
 117 620.011 l 2
 117 683.011 81 720.011 30 733.011 c 1
 30 739.011 l 1
 127 754.011 179 760.011 244 800.011 c 1
 251 799.011 l 1
 251 239.445 l 1
 299.764 278.381 350.998 319.498 374.5 343 c 0
 481.5 450 362.5 495 362.5 495 c 1
 362.5 503 l 1
 450.5 492 535.5 492 616.5 503 c 1
 616.5 500 617.5 495 617.5 495 c 1
 572.5 495 465.5 412 388.5 335 c 1
 388.08 334.647 l 1
 592.5 59 l 1
 592.5 59 619.5 18 641.5 12 c 2
 656.5 8 l 1
 656.5 0 l 1
 568.17 11.4541 483.161 11.501 402.5 0 c 1
 402.5 8 l 1
 417.5 12 l 2
 437.5 17 444.883 37.2783 429.5 58 c 2
 287.078 249.855 l 1
EndSplineSet
Validated: 524321
EndChar

StartChar: z
Encoding: 122 122 29
Width: 614
VWidth: 0
Flags: W
HStem: 0 21<216.633 306.242> 0 13<31 40.1568> 481.026 18.9852<304.788 373.556> 493 7.34<559 573.673>
VStem: 535.833 9<250.935 264>
LayerCount: 2
Fore
SplineSet
386.999 500.011 m 1x68
 573.673 500.34 l 1
 574 493 l 1
 559 489 l 2
 537 483 510 442 510 442 c 1
 216.633 21 l 1x98
 218.833 21 l 2
 475.835 21 535.833 264 535.833 264 c 1
 544.833 264 l 1
 499 0 l 1
 202 0 l 1
 179.833 0 l 1
 179.834 0.0757613 l 1
 117.427 0.224709 96.5412 -0.311534 16 0 c 1
 16 8 l 1
 31 13 l 1
 48 17 102.051 97.5947 116.5 118 c 2
 373.556 481.026 l 1
 145.723 477.949 88.9746 261.751 88.9746 261.751 c 2
 81.7539 261.751 l 1
 125.03 500.011 l 1
 386.999 500.011 l 1x68
EndSplineSet
Validated: 8912929
EndChar

StartChar: B
Encoding: 66 66 30
Width: 757
VWidth: 0
Flags: W
HStem: 0 16.9854<329.425 457.666> 0 8<26 42.176> 412.534 11.9022<293.479 419.453> 783.889 16.986<294.873 427.301> 792.5 8<27.5 43.3917>
VStem: 120.5 172.979<40.9307 412.534 424.499 761.275> 518.162 176.635<511.936 694.812> 548.398 183<121.491 304.363>
LayerCount: 2
Fore
SplineSet
294 793.105 m 1x6d
 326.95 796.705 337.424 799.72 376.381 800.875 c 1
 499.381 800.875 695.104 780.731 694.797 613 c 0x36
 694.347 472.21 610.233 430.299 509.556 417.822 c 1
 609.958 402.224 731.398 354.869 731.398 217.035 c 0
 731.398 -5 501.5 0 378.5 0 c 0xb5
 352.809 0 326.17 3.38002 298.986 6.93551 c 0
 297.733 7.0751 296.447 7.21639 295.125 7.35938 c 1
 295.104 7.44361 l 1
 267.714 11.029 239.792 14.6376 211.75 15.0098 c 0
 143.355 15.0293 74.2637 9.75586 26 0 c 1
 26 8 l 1
 26 8 118.85 22 119 85 c 2
 120.5 715.5 l 2
 120.649 778.5 27.5 792.5 27.5 792.5 c 1
 27.5 800.5 l 1
 74.1055 791.08 138.041 786.535 202 786.561 c 0
 236.438 786.799 265.847 789.858 293.037 793 c 0
 293.358 793.037 293.679 793.074 294 793.112 c 2
 294 793.105 l 1x6d
293.976 776.1 m 1
 293.479 424.436 l 1
 378.495 424.035 l 1
 378.5 424.035 l 1
 378.5 424.035 384.377 424.501 394.614 424.807 c 0
 479.395 433.154 518.162 508.44 518.162 613.499 c 1
 516.164 707.818 483.881 783.889 376.381 783.889 c 0
 322.539 783.889 298.855 777.599 293.976 776.1 c 1
378.5 16.9854 m 0xa5
 496 16.9854 548.398 45 548.398 213.035 c 0
 547.622 367.705 480.753 412.534 378.5 412.534 c 2
 293.463 412.534 l 1
 293 85 l 2
 292.717 20.7432 353 16.9854 378.5 16.9854 c 0xa5
280.162 424.499 m 1
 280.162 424.497 l 1
 280.162 424.495 l 1
 280.162 424.499 l 1
EndSplineSet
Validated: 8912933
EndChar

StartChar: P
Encoding: 80 80 31
Width: 713
VWidth: 0
Flags: W
HStem: 0 8<25.5459 39.0723 371.794 385.546> 348.269 11.8973<376.702 409.125> 783.014 16.986<293.202 420.433> 791.5 8<25.7031 41.5948>
VStem: 118.546 174<40.489 84.9961 714.5 760.274> 516.364 176.636<490.358 672.751>
LayerCount: 2
Fore
SplineSet
292.598 774.601 m 1xec
 297.101 775.888 324.395 783.014 376.702 783.014 c 0
 484.202 783.014 514.366 679.636 516.364 585.317 c 1
 516.364 473.817 470.202 359.771 376.702 359.771 c 2
 292.567 360.166 l 1
 292.598 774.601 l 1xec
292.014 792.28 m 1
 264.391 788.968 234.023 785.795 200.203 785.561 c 0
 136.244 785.535 72.3086 790.08 25.7031 799.5 c 1
 25.7031 791.5 l 1xdc
 25.7031 791.5 119.318 777.497 118.703 714.5 c 2
 118.546 84.9961 l 2
 118.53 21.9961 25.5459 8 25.5459 8 c 1
 25.5459 0 l 1
 118.065 18.9883 291.343 20.9863 385.546 0 c 1
 385.546 8 l 1
 385.546 8 292.546 21 292.546 84.9961 c 0
 292.553 172.754 292.559 260.511 292.566 348.269 c 1
 376.702 348.269 l 2
 398.204 348.269 693 348.269 693 584.817 c 0
 693.308 752.55 499.702 800 376.702 800 c 1
 337.369 798.834 325.727 795.935 292.014 792.288 c 1
 292.014 792.28 l 1
EndSplineSet
Validated: 8912937
EndChar

StartChar: C
Encoding: 67 67 32
Width: 776
VWidth: 0
Flags: W
HStem: -15 17<359.925 480.026> 798 17<368.537 477.202>
VStem: 28 189<271.147 537.068> 702.5 8.5<-4.01074 16.0269 278.178 293.833 489 519.322 778.496 803>
LayerCount: 2
Fore
SplineSet
420 815 m 0
 344 815 29.0498 717.689 28 406 c 1
 29.1592 145.176 245 -15 420 -15 c 0
 547 -15 618 64 665 64 c 0
 693.5 64 702.565 -4.01074 702.565 -4.01074 c 1
 711 -4.01074 l 1
 711.166 293.833 l 1
 702.565 293.87 l 1
 702.565 293.87 650 2 419 2 c 0
 212 2 217 233 217 411 c 0
 217 548 217 798 420 798 c 0
 605 798 702.5 566 702.5 489 c 1
 711 489 l 1
 711 803 l 1
 702.625 803 l 1
 702.625 803 702.375 746 660 746 c 0
 625.875 746 549.5 815 420 815 c 0
EndSplineSet
Validated: 524329
EndChar

StartChar: R
Encoding: 82 82 33
Width: 808
VWidth: 0
Flags: W
HStem: 0 8<531.728 544.417> 0 8<34 47.7231 380.411 394 783.446 798.491> 347.833 12.2486<321.59 368.095> 783.014 16.986<302.032 427.6> 791.5 8<34.1572 50.0489>
VStem: 127 174.021<40.489 84.9961 714.5 760.274> 520.818 176.636<493.393 672.751>
LayerCount: 2
Fore
SplineSet
301.052 774.601 m 1x36
 305.558 775.888 332.878 783.014 385.187 783.014 c 0
 492.687 783.014 518.82 679.636 520.818 585.317 c 1
 520.818 478.946 432.388 370.258 343.071 360.484 c 0
 334.531 360.353 327.658 360.147 324.144 359.835 c 2
 301.021 360.082 l 1
 301.052 774.601 l 1x36
300.468 792.28 m 1
 272.845 788.968 242.478 785.795 208.657 785.561 c 0
 144.698 785.535 80.7627 790.08 34.1572 799.5 c 1
 34.1572 791.5 l 1
 34.1572 791.5 127.772 777.497 127.157 714.5 c 2
 127 84.9961 l 2
 126.984 21.9961 34 8 34 8 c 1
 34 0 l 1
 128 19 301 21 394 0 c 1
 394 8 l 1x6e
 394 8 301 21 301 84.9961 c 2
 301.02 347.833 l 1
 321.59 347.833 l 2
 423.049 348.75 409.75 314.448 549.491 45 c 0
 560.991 24.5 554.816 14.1572 546.728 12 c 2
 531.728 8 l 1
 531.728 0 l 1xa6
 621.612 20.0518 719.38 20.1738 798.491 0 c 1
 798.491 8 l 1x66
 740.158 8.99805 715.491 72 680.491 152.333 c 1
 607.059 311.732 517.188 352.023 447.584 359.194 c 1
 555.275 378.718 697.454 433.138 697.454 584.817 c 0
 697.762 752.55 508.187 800 385.187 800 c 1
 345.854 798.834 334.181 795.935 300.468 792.288 c 1
 300.468 792.28 l 1
EndSplineSet
Validated: 8912937
EndChar

StartChar: D
Encoding: 68 68 34
Width: 855
VWidth: 0
Flags: W
HStem: 0 16.9854<329.425 458.101> 0 8<26 42.1916> 783.889 16.986<293.833 440.17> 792.5 8<26.5 42.3917>
VStem: 119 174<39.2837 761.275> 629 198<267.388 553.46>
LayerCount: 2
Fore
SplineSet
293 775.782 m 1xac
 293 85 l 2
 292.717 20.7432 353 16.9854 378.5 16.9854 c 0
 496 16.9854 629 44 629 416 c 0
 629 718 483.881 783.889 376.381 783.889 c 0
 315.256 783.889 293 775.782 293 775.782 c 1xac
293 775.782 m 1
 293.037 793 l 1
 326.75 796.646 337.047 799.709 376.381 800.875 c 1
 566 800.875 827 718 827 420 c 0
 827 118 634 0 378.5 0 c 0xac
 352.809 0 326.17 3.38002 298.986 6.93551 c 0
 297.733 7.0751 296.447 7.21639 295.125 7.35938 c 1
 295.104 7.44361 l 1
 267.714 11.029 239.792 14.6376 211.75 15.0098 c 0
 143.355 15.0293 74.2637 9.75586 26 0 c 1
 26 8 l 1
 26 8 118.95 22 119 85 c 2
 119.5 715.5 l 2
 119.649 778.5 26.5 792.5 26.5 792.5 c 1
 26.5 800.5 l 1x5c
 73.1055 791.08 137.041 786.535 201 786.561 c 0
 235.845 786.802 265.541 789.931 293 793.112 c 1
 293 775.782 l 1
EndSplineSet
Validated: 8912933
EndChar

StartChar: E
Encoding: 69 69 35
Width: 790
VWidth: 0
Flags: W
HStem: 0 16.9854<329.533 465.435> 0 8<26 42.0329> 389.912 16.088<323 379.564> 782.886 16.989<293.728 441.682> 792.5 8<25.5 41.3917>
VStem: 117.5 175.5<39.2837 85 715.5 761.275> 530 9.33301<202.911 243.404 552.507 593>
LayerCount: 2
Fore
SplineSet
374.381 799.875 m 1xb6
 335.047 798.709 324.75 796.646 291.037 793 c 1
 291.037 792.885 l 1
 264.08 789.784 234.017 786.796 200 786.561 c 0
 136.041 786.535 72.1055 791.08 25.5 800.5 c 1
 25.5 792.5 l 1
 25.5 792.5 117.75 778.5 117.5 715.5 c 2
 118 85 l 2
 118.05 22 26 8 26 8 c 1
 26 0 l 1x6e
 146.372 0 260.771 0 378.5 0 c 0xa6
 491.667 0 604.835 0 718.002 0 c 1x66
 760.341 282.993 l 1
 751 282.993 l 1
 751 282.993 715 16.9854 378.5 16.9854 c 0
 353 16.9854 292.717 20.7432 293 85 c 2
 293 389.912 l 1
 323 389.912 l 1
 323 389.912 530 389.911 530 202.911 c 1
 539.333 202.911 l 1
 539.333 593 l 1
 530 593 l 1
 530 406 323 406 323 406 c 1
 293 406 l 1
 293 776.324 l 1
 299.655 777.984 323.604 782.886 374.381 782.886 c 0
 588.328 782.886 706.999 568 706.999 568 c 1
 716.398 568 l 1
 639.167 771.5 l 1
 639.167 771.5 507.5 799.875 374.381 799.875 c 1xb6
EndSplineSet
Validated: 8912937
EndChar

StartChar: F
Encoding: 70 70 36
Width: 728
VWidth: 0
Flags: W
HStem: 0 8<26 39.5443 372.202 386> 389.912 16.088<293.453 379.564> 782.886 16.989<294 443.682> 792.5 8<25.5 41.4583>
VStem: 118.5 174.953<39.2249 389.912 406 761.275> 530 9.33301<202.911 243.404 552.507 593>
LayerCount: 2
Fore
SplineSet
119 85 m 2xec
 118.5 715.5 l 2
 118.649 778.5 25.5 792.5 25.5 792.5 c 1
 25.5 800.5 l 1xdc
 72.1055 791.08 138.041 786.535 202 786.561 c 0
 236.438 786.799 265.847 789.858 293.037 793 c 0
 293.358 793.037 293.679 793.074 294 793.112 c 2
 294 793.104 l 1
 326.95 796.685 337.424 798.72 376.381 799.875 c 1
 509.5 799.875 641.167 771.5 641.167 771.5 c 1
 718.398 568 l 1
 708.999 568 l 1
 708.999 568 590.328 782.886 376.381 782.886 c 0
 322.535 782.886 298.855 777.374 293.976 776.061 c 1
 293.453 406 l 1
 323 406 l 1
 323 406 530 406 530 593 c 1
 539.333 593 l 1
 539.333 202.911 l 1
 530 202.911 l 1
 530 389.911 323 389.912 323 389.912 c 1
 293.431 389.912 l 1
 293 85 l 2
 292.909 21 386 8 386 8 c 1
 386 0 l 1
 291.431 20.8066 118.677 19.1777 26 0 c 1
 26 8 l 1
 26 8 119.05 22 119 85 c 2xec
EndSplineSet
Validated: 8912933
EndChar

StartChar: N
Encoding: 78 78 37
Width: 925
VWidth: 0
Flags: W
HStem: 0.00195312 8.00391<296.36 310.107> 791.875 7.99902<10.291 34.1643 640.625 653.893 902.161 915.357>
VStem: 163.832 17.818<96.3721 139.839> 768.949 17.7609<660.042 703.509>
LayerCount: 2
Fore
SplineSet
640.625 799.874 m 1
 640.625 791.875 l 1
 640.625 791.875 769.082 764.375 769.082 660.042 c 2
 768.949 278.483 l 1
 323.875 800 l 1
 237.961 782.301 140.97 781.315 10 800 c 1
 10.291 790.542 l 1
 81.625 789.829 131.291 734.874 131.291 734.874 c 1
 163.388 697.929 l 1
 163.832 139.839 l 2
 163.832 35.5059 35.375 8.00586 35.375 8.00586 c 1
 35.375 0.00195312 l 2
 34.9648 -10.7148 160.943 34.251 310.107 0.00195312 c 1
 310.107 8.00586 l 1
 310.107 8.00586 181.65 35.5059 181.65 139.839 c 0
 181.507 319.027 181.364 498.215 181.221 677.403 c 1
 778.43 -10 l 1
 786.975 -10 l 1
 786.71 120.385 l 2
 786.773 300.27 786.837 480.156 786.9 660.042 c 0
 786.9 764.375 915.357 791.875 915.357 791.875 c 1
 915.357 799.874 l 1
 774.328 769.978 640.625 799.874 640.625 799.874 c 1
EndSplineSet
Validated: 524329
EndChar

StartChar: I
Encoding: 73 73 38
Width: 412
VWidth: 0
Flags: W
HStem: 0 8<26 39.6675 372.347 386> 792 8<26 39.7231 372.411 386>
VStem: 119 174<40.4903 760.775>
LayerCount: 2
Fore
SplineSet
119 85 m 2
 119 715 l 2
 119 778 26 792 26 792 c 1
 26 800 l 1
 120 781 293 778 386 800 c 1
 386 792 l 1
 386 792 293 778 293 715 c 2
 293 85 l 2
 293 21 386 8 386 8 c 1
 386 0 l 1
 292.522 20.9863 119.588 18.9883 26 0 c 1
 26 8 l 1
 26 8 119 22 119 85 c 2
EndSplineSet
Validated: 524321
EndChar

StartChar: A
Encoding: 65 65 39
Width: 835
VWidth: 0
Flags: W
HStem: 0 8.25<10.0469 35.5333 303.392 323.545 458.68 476.728> 246 16<246.67 470.096> 798 20G<433.894 448.466>
LayerCount: 2
Fore
SplineSet
728.547 90.665 m 2
 752.635 29.833 825.68 8 825.68 8 c 1
 825.68 0 l 1
 732.677 12.5596 552.677 11.5713 458.68 0 c 1
 458.68 8 l 1
 458.68 8 564.916 24.5723 540.545 82.668 c 1
 476.382 246 l 1
 240.407 246 l 1
 211.047 170.997 l 2
 154.353 26.1641 323.545 8 323.545 8 c 1
 323.545 0 l 1
 232.046 9.58594 103.992 11.7979 10 0 c 1
 10.0469 8.25 l 1
 121.88 11 195.047 178.997 195.047 178.997 c 1
 349.012 563.036 l 1
 335.714 586.07 321.912 597.991 301.621 597.991 c 1
 298.813 603.294 l 1
 342.795 635.63 350.978 655.332 378.547 698 c 0
 399.547 730.5 433.894 815.608 433.894 815.608 c 1
 440.547 818 l 1
 728.547 90.665 l 2
357.863 546.053 m 1
 246.67 262 l 1
 470.096 262 l 1
 362.104 536.903 l 2
 360.677 540.073 359.265 543.123 357.863 546.053 c 1
EndSplineSet
Validated: 524321
EndChar

StartChar: K
Encoding: 75 75 40
Width: 845
VWidth: 0
Flags: W
HStem: 1 7<32 44.9317 377.336 392 536 547.835 822.495 835> 792 8<32 48.1994 376.882 392 523 531.241>
VStem: 125 174<40.4903 345.597 371.919 760.775>
LayerCount: 2
Fore
SplineSet
125 85 m 2
 125 715 l 2
 125 778 32 792 32 792 c 1
 32 800 l 1
 116.917 782.841 287.478 781.08 392 800 c 1
 392 792 l 1
 392 792 299 778 299 715 c 2
 299 371.919 l 1
 394.28 474.889 535 640.325 535 640.325 c 1
 650.675 756 523 792.325 523 792.325 c 1
 523 800.325 l 1
 611 781.866 696 781.917 777 800.325 c 1
 777 797.325 778 792.325 778 792.325 c 1
 733 792.325 632 715.325 549 632.325 c 1
 470.156 541.898 l 1
 762 63.5 l 1
 762 63.5 794.186 18.8838 820 12 c 2
 835 8 l 1
 835 0 l 1
 748.025 10.6602 617.97 10.6729 536 0 c 1
 536 8 l 1
 551 12 l 2
 571 17 578.067 37.0479 563 58 c 1
 348.31 402.151 l 1
 299 345.597 l 1
 299 85 l 2
 299 21 392 8 392 8 c 1
 392 1 l 1
 290.868 11.5596 120.205 10.8799 32 1 c 1
 32 8 l 1
 32 8 125 22 125 85 c 2
EndSplineSet
Validated: 524321
EndChar

StartChar: O
Encoding: 79 79 41
Width: 796
VWidth: 0
Flags: W
HStem: -15 16.9512<361.986 438.889> 798.004 16.985<355.031 444.691>
VStem: 28 198<242.327 539.624> 570.892 198<239.752 537.008>
LayerCount: 2
Fore
SplineSet
399.928 798.004 m 1
 293.416 796.09 226 712 226 390 c 0
 226 91 317.932 1.95117 399.468 1.95117 c 0
 481.003 1.95117 570.892 88.1396 570.892 387.14 c 0
 570.892 709.14 506.438 796.09 399.928 798.004 c 1
399.595 -15 m 0
 203.432 -15 28 113 28 394 c 0
 28 692 254.272 814.989 399.928 814.989 c 0
 545.582 814.989 768.892 689.14 768.892 391.14 c 0
 768.892 110.14 595.503 -15 399.595 -15 c 0
EndSplineSet
Validated: 524289
EndChar

StartChar: Q
Encoding: 81 81 42
Width: 787
VWidth: 0
Flags: W
HStem: -167 76<432.5 686.5> -13.9512 16.9512<361.036 436.401> 798.014 16.986<352.239 441.763>
VStem: 28.0723 198<243.256 535.738> 64 8<-90.3281 -74.0949> 567.964 198<239.856 537.009> 762 8<-16.2114 -2>
LayerCount: 2
Fore
SplineSet
397 798.014 m 1xf4
 290.489 796.1 226.072 712 226.072 390 c 0
 226.072 91 315.464 3 397 3 c 0
 478.536 3 567.964 88.1396 567.964 387.14 c 0
 567.964 709.14 503.511 796.1 397 798.014 c 1xf4
221.721 25.5026 m 1
 108.423 82.4647 28.0723 202.435 28.0723 394 c 0
 28.0723 692 251.345 815 397 815 c 0
 542.655 815 765.964 689.14 765.964 391.14 c 0xf4
 765.964 110.14 593.036 -13.9512 397.127 -13.9512 c 0
 384.331 -13.9512 371.633 -13.411 359.076 -12.323 c 1
 438.708 -46.4434 537.429 -91 659 -91 c 0
 714 -91 752 -54 762 -2 c 1
 770 -2 l 1
 760 -107 625 -167 512 -167 c 0
 353 -167 260 -25 130 -25 c 0
 99 -25 73 -63.3281 72 -90.3281 c 1
 64 -90.3281 l 1xea
 64 -18.4138 121.102 19.4936 221.721 25.5026 c 1
EndSplineSet
Validated: 8912897
EndChar

StartChar: S
Encoding: 83 83 43
Width: 613
VWidth: 0
Flags: W
HStem: -15 18<278.144 366.491> 797.997 17.001<244.284 324.66>
VStem: 50 130<440.7 695.5> 57.037 14.963<-0.999513 24.251 291.617 305> 440.992 137.008<133.763 380.915> 504.375 8.375<782.914 804.667> 518.25 12.5<540.667 564.931>
LayerCount: 2
Fore
SplineSet
291.009 797.997 m 0xe8
 391.25 797.997 518.25 586.667 518.25 540.667 c 1
 530.75 540.667 l 1
 512.75 804.667 l 1
 504.375 804.667 l 1
 504.375 804.667 502.75 756.667 471.25 756.667 c 0
 431 756.667 403.5 814.998 295.01 814.998 c 0
 155 815 50 702 50 560 c 0xe6
 50 321.4 440.446 353.396 440.992 136 c 0
 440.992 68 413.593 2.99219 316 3 c 0
 222 3 107.659 162.733 75 305 c 1
 61.9355 305 l 1
 60.3027 203 58.6699 101 57.037 -0.999513 c 1
 57.037 -0.902813 64.3137 -1.0429 72 -1 c 1xd8
 72 25 89 38 102 38 c 0
 132.25 38 238.81 -15 316.125 -15 c 0
 476.159 -15 578 100.357 578 237.831 c 0
 578 524 180 467 180 676 c 0
 180 715 186.199 798.31 291.009 797.997 c 0xe8
57.037 -0.999513 m 1xd0
 57.0371 -1 l 1
 57.037 -0.999513 l 1xd0
EndSplineSet
Validated: 8912933
EndChar

StartChar: M
Encoding: 77 77 44
Width: 1110
VWidth: 0
Flags: W
HStem: 0 8<34.9102 47.4872 295.895 309.642 675.129 691.328 1020.47 1035.13> 790.179 9.82098<11.1885 43.92 1037.31 1082.35>
VStem: 163.367 17.818<96.3717 139.839> 768.129 174<40.4903 85 692 750.365>
LayerCount: 2
Fore
SplineSet
34.9102 0 m 1
 34.9102 0 160.545 33.622 309.642 0 c 1
 309.642 8 l 1
 309.642 8 181.185 35.5059 181.185 139.839 c 0
 181.045 315.508 180.905 491.177 180.764 666.846 c 1
 451.91 0 l 1
 465.245 0 l 1
 506.345 101.622 l 1
 506.66 101.5 l 1
 768.129 752.217 l 1
 768.129 85 l 2
 768.129 22 675.129 8 675.129 8 c 1
 675.129 0 l 1
 763.334 18.9893 933.997 20.9863 1035.13 0 c 1
 1035.13 8 l 1
 1035.13 8 942.129 21 942.129 85 c 2
 942.129 692 l 2
 942.129 741.5 974.966 789.365 1082.35 790.179 c 1
 1084 800 l 1
 866.73 777.946 858.932 786.531 768.129 800 c 1
 547.27 250.35 l 1
 323.41 800 l 1
 237.496 782.301 140.505 781.315 9.53516 800 c 1
 11.1885 790.179 l 1
 104.869 790.14 146.223 741.044 162.915 709.123 c 1
 163.367 139.839 l 2
 163.367 35.5059 34.9102 8 34.9102 8 c 1
 34.9102 0 l 1
EndSplineSet
Validated: 524329
EndChar

StartChar: U
Encoding: 85 85 45
Width: 903
VWidth: 0
Flags: W
HStem: -15 25.0488<418.858 545.528> 792 8<17.0186 33.2044 362.894 378.018 608.268 621.536 869.804 883>
VStem: 110.58 174.51<193.977 313.681 715 759.07> 736.529 16.489<229.234 313.681 660.042 695.662>
LayerCount: 2
Fore
SplineSet
486.329 10.0488 m 0
 359.459 10.0488 285.09 117 285.09 231 c 2
 285.018 715 l 2
 284.879 778.001 378.018 792 378.018 792 c 1
 378.018 800 l 1
 273.496 781.08 101.936 782.841 17.0186 800 c 1
 17.0186 792 l 1
 17.0186 792 109.931 778.002 110.019 715 c 2
 110.58 313.681 l 2
 110.836 134 243.974 -15 450.58 -15 c 0
 653.018 -15 753.018 125.25 753.018 313.681 c 2
 754.543 660.042 l 2
 754.543 764.375 883 791.875 883 791.875 c 1
 883 799.874 l 1
 741.972 769.978 608.268 799.874 608.268 799.874 c 1
 608.268 791.875 l 1
 608.268 791.875 736.726 764.375 736.726 660.042 c 2
 736.529 305 l 2
 736.529 83.25 582.58 10.0488 486.329 10.0488 c 0
EndSplineSet
Validated: 524329
EndChar

StartChar: V
Encoding: 86 86 46
Width: 856
VWidth: 0
Flags: W
HStem: 792.499 7.99896<363.233 377 532.965 551.695 825.956 846.463>
LayerCount: 2
Fore
SplineSet
485.901 179 m 1
 407.466 -18 l 1
 394.466 -18 l 1
 106.466 717.331 l 2
 82.6055 778.253 10 791.999 10 791.999 c 1
 10 799.999 l 1
 103.003 787.277 283.003 774.946 377 799.999 c 1
 377 791.999 l 1
 377 791.999 272.659 776.186 295.135 717.331 c 2
 486.143 217.176 l 1
 645.463 631.501 l 2
 701.286 776.673 532.965 792.499 532.965 792.499 c 1
 532.965 800.498 l 1
 609.455 784.318 731.101 779.502 846.51 800.498 c 1
 846.463 792.248 l 1
 734.631 789.498 661.463 623.501 661.463 623.501 c 1
 486.465 179 l 1
 485.901 179 l 1
EndSplineSet
Validated: 524321
EndChar

StartChar: W
Encoding: 87 87 47
Width: 1379
VWidth: 0
Flags: W
HStem: 792.499 8<363.233 377 532.965 533.255 885.928 900.255 1056.22 1074.95 1349.21 1369.72>
LayerCount: 2
Fore
SplineSet
485.901 179 m 1
 407.466 -18 l 1
 394.466 -18 l 1
 106.466 717.335 l 2
 82.6055 778.257 10 791.999 10 791.999 c 1
 10 799.999 l 1
 103.003 787.277 283.003 774.946 377 799.999 c 1
 377 791.999 l 1
 377 791.999 272.659 776.19 295.135 717.335 c 2
 486.152 217.152 l 1
 641 619.333 l 2
 653.34 650.615 636.071 700.675 631.03 713.992 c 2
 629.721 717.335 l 2
 619.787 742.18 601.893 759.256 584.172 770.769 c 0
 558.541 787.213 533.255 791.999 533.255 791.999 c 2
 533.255 792.439 l 2
 533.064 792.48 532.965 792.499 532.965 792.499 c 2
 532.965 800.499 l 1
 535.379 799.988 537.892 799.489 540.498 799.001 c 0
 621.879 787.94 738.557 777.525 893.146 798.993 c 0
 895.556 799.401 897.942 799.82 900.303 800.249 c 1
 900.255 791.999 l 1
 900.255 791.999 795.914 776.19 818.39 717.335 c 2
 1009.4 217.175 l 1
 1168.72 631.501 l 2
 1224.54 776.672 1056.22 792.499 1056.22 792.499 c 1
 1056.22 800.499 l 1
 1132.71 784.318 1254.36 779.503 1369.76 800.499 c 1
 1369.72 792.248 l 1
 1257.89 789.498 1184.72 623.501 1184.72 623.501 c 1
 1009.72 179 l 1
 1009.15 179 l 1
 930.721 -18 l 1
 917.721 -18 l 1
 664.377 628.849 l 1
 662.998 626.628 662.017 624.824 661.463 623.501 c 2
 486.465 179 l 1
 485.901 179 l 1
EndSplineSet
Validated: 524321
EndChar

StartChar: J
Encoding: 74 74 48
Width: 527
VWidth: 0
Flags: W
HStem: -10 16<170.263 218.372> 792.5 8<157.148 172.266 500.952 517.147>
VStem: 0 150.151<39.5 160.611> 250.147 173.854<138.08 297.004 715.5 761.276>
LayerCount: 2
Fore
SplineSet
250.147 118 m 2
 250.147 88.5 249.723 5.78125 194.48 6 c 0
 168.814 6 150.151 20.5 150.151 58.5 c 0
 150.151 79 157.739 104.333 157.739 133 c 0
 157.739 192.8 117.001 211 74.1006 211 c 1
 27.3008 208.4 0 177.2 0 127.8 c 0
 0 71.9004 59.8145 -10 187.814 -10 c 0
 294.814 -10 424.147 34 424.001 297.004 c 2
 424.147 715.5 l 2
 424.174 778.504 517.147 792.5 517.147 792.5 c 1
 517.147 800.5 l 1
 432.23 783.341 261.67 781.58 157.148 800.5 c 1
 157.148 792.5 l 1
 157.148 792.5 250.147 778.502 250.147 715.5 c 2
 250.147 118 l 2
EndSplineSet
Validated: 524329
EndChar

StartChar: X
Encoding: 88 88 49
Width: 809
VWidth: 0
Flags: W
HStem: 0 8<11 30.0571 252.645 265 439 454.118 782.349 799> 792 8<33 49.6511 377.882 393 519.5 531.855 754.443 773.5>
LayerCount: 2
Fore
SplineSet
510.412 72.8054 m 1
 358.499 326.59 l 1
 307.106 244.565 253 160 253 160 c 1
 166.07 21.4277 265 8 265 8 c 1
 265 0 l 1
 177 11 92 11 11 0 c 1
 11 3 10 8 10 8 c 1
 55 8 176.452 73.6748 239 173 c 2
 347.398 345.135 l 1
 126 715 l 1
 98.8232 762.845 61 790.5 33 792 c 1
 33 800 l 1
 117.917 782.841 288.478 781.08 393 800 c 1
 393 792 l 1
 393 792 301.059 776.046 321.588 727.194 c 1
 450.856 511.241 l 1
 531.5 640 l 2
 618.329 778.634 519.5 792 519.5 792 c 1
 519.5 800 l 1
 607.5 789 692.5 789 773.5 800 c 1
 773.5 797 774.5 792 774.5 792 c 1
 729.5 792 607.967 726.375 545.5 627 c 2
 461.528 493.412 l 1
 706 85 l 1
 733.177 37.1553 771 9.5 799 8 c 1
 799 0 l 1
 714.083 17.1592 543.521 18.9199 439 0 c 1
 439 8 l 1
 439 8 530.94 23.954 510.412 72.8054 c 1
EndSplineSet
Validated: 524321
EndChar

StartChar: Y
Encoding: 89 89 50
Width: 849
VWidth: 0
Flags: W
HStem: 1 7<214 226.932 559.336 574> 792 8<10 26.6511 354.882 370 584.5 596.855 819.443 838.5>
VStem: 307 174<40.4903 388.462>
LayerCount: 2
Fore
SplineSet
307 388.462 m 1
 103 715 l 1
 75.8232 762.845 38 790.5 10 792 c 1
 10 800 l 1
 94.917 782.841 265.478 781.08 370 800 c 1
 370 792 l 1
 370 792 268.452 773.82 302 720.5 c 2
 474.669 446.062 l 1
 596.5 640 l 2
 683.52 778.521 584.5 792 584.5 792 c 1
 584.5 800 l 1
 672.5 789 757.5 789 838.5 800 c 1
 838.5 797 839.5 792 839.5 792 c 1
 794.5 792 673.066 726.314 610.5 627 c 2
 481 421.439 l 1
 481 85 l 2
 481 21 574 8 574 8 c 1
 574 1 l 1
 472.868 11.5596 302.205 10.8799 214 1 c 1
 214 8 l 1
 214 8 307 22 307 85 c 2
 307 388.462 l 1
EndSplineSet
Validated: 524321
EndChar

StartChar: G
Encoding: 71 71 51
Width: 803
VWidth: 0
Flags: W
HStem: -15 17<357.925 481.016> 364 8<406 423.044> 798 17<366.537 475.696>
VStem: 26 189<271.147 537.068> 710.5 8.5<-4.01074 16.0269 489 519.322 778.496 803>
LayerCount: 2
Fore
SplineSet
406 372 m 1
 406 364 l 1
 406 364 545 339.5 545 287 c 2
 545 37.469 l 1
 509.586 15.83 467.284 2 417 2 c 0
 210 2 215 233 215 411 c 0
 215 548 215 798 418 798 c 0
 603 798 710.5 566 710.5 489 c 1
 719 489 l 1
 719 803 l 1
 710.625 803 l 1
 710.625 803 710.375 746 668 746 c 0
 633.875 746 547.5 815 418 815 c 0
 342 815 27.0498 717.689 26 406 c 1
 27.1592 145.176 243 -15 418 -15 c 0
 545 -15 626 64 673 64 c 0
 701.5 64 710.565 -4.01074 710.565 -4.01074 c 1
 719 -4.01074 l 1
 719.165 292.169 l 1
 723.017 351.707 793 364 793 364 c 2
 793 372 l 1
 701 351 500 353 406 372 c 1
EndSplineSet
Validated: 524329
EndChar

StartChar: Z
Encoding: 90 90 52
Width: 808
VWidth: 0
Flags: W
HStem: 0 16.9814<307.395 423.825> 0 8<10 26.6511> 782.998 16.989<378.231 520.506>
VStem: 711.159 9.341<265.525 282.993>
LayerCount: 2
Fore
SplineSet
302 79.5 m 2x70
 269.536 25.6416 324.53 16.9814 338.659 16.9814 c 0xb0
 667.5 16.9814 711.159 282.95 711.159 282.993 c 2
 720.5 282.993 l 1
 678.161 0 l 1x70
 564.994 0 451.826 0 338.659 0 c 2xb0
 10 0 l 1
 10 8 l 1
 38 9.5 75.8232 37.1553 103 85 c 1
 281.444 380.242 l 1
 521.353 777.949 l 1
 509.804 780.047 486.554 782.998 447.151 782.998 c 0
 233.204 782.998 85.5381 568.112 85.5381 568.112 c 1
 76.1396 568.112 l 1
 153.37 771.612 l 1
 153.37 771.612 314.032 799.987 447.151 799.987 c 1
 486.485 798.821 496.787 796.759 530.5 793.112 c 1
 530.5 793.112 579.655 786.802 614.5 786.561 c 0
 678.459 786.535 732.395 791.08 779 800.5 c 1
 779 792.5 l 1
 779 792.5 729.125 786.904 686 715.5 c 2
 637.991 636.01 l 1
 638 636 l 1
 302 79.5 l 2x70
EndSplineSet
Validated: 8912929
EndChar

StartChar: zero
Encoding: 48 48 53
Width: 657
VWidth: 0
Flags: HMW
HStem: -15 16.9512<293.512 363.473> 798.004 16.985<286.154 370.053>
VStem: -151 60 14 198<212.177 556.221> 446 198<212.177 556.221>
LayerCount: 2
Fore
SplineSet
328.333 799.004 m 0
 259.333 799.004 212 712 212 390 c 0
 212 91 259 0 327.873 0.951172 c 1
 397 0 444 91 444 390 c 0
 444 712 396.667 799.004 328.333 799.004 c 0
328 -15 m 0
 157 -15 14 113 14 394 c 0
 14 692 207.333 814.989 328.333 814.989 c 0
 448.667 814.989 642 692 642 394 c 0
 642 113 499 -15 328 -15 c 0
EndSplineSet
Validated: 524321
EndChar

StartChar: comma
Encoding: 44 44 54
Width: 301
VWidth: 0
Flags: W
HStem: -125.883 18.498<40.4477 54.8585>
LayerCount: 2
Fore
SplineSet
42.6953 -125.883 m 1
 175.411 -83.293 212.313 16.03 213 104 c 0
 213.5 168 165.503 195 126 195 c 0
 52 195 21.2295 95.7695 71.5 45.5 c 0
 161.186 -44.1865 74.0947 -96.6074 36.7559 -107.385 c 1
 42.6953 -125.883 l 1
EndSplineSet
Validated: 524329
EndChar

StartChar: period
Encoding: 46 46 55
Width: 301
VWidth: 0
Flags: W
HStem: -10 175.001<74.1122 184.504>
VStem: 46.8779 166<19.0695 136.082>
LayerCount: 2
Fore
SplineSet
46.8779 78.001 m 0
 46.8779 125.001 80.8779 165.001 128.878 165.001 c 0
 176.878 165.001 212.878 125.001 212.878 78.001 c 0
 212.878 30 176.878 -10 128.878 -10 c 0
 80.8779 -10 46.8779 30 46.8779 78.001 c 0
EndSplineSet
Validated: 524289
EndChar

StartChar: semicolon
Encoding: 59 59 56
Width: 301
VWidth: 0
Flags: W
HStem: -125.883 18.498<40.4477 54.8585> 335.028 175.001<74.1122 184.504>
VStem: 46.8779 166<364.098 481.11>
LayerCount: 2
Fore
SplineSet
42.6953 -125.883 m 1
 175.411 -83.293 212.313 16.03 213 104 c 0
 213.5 168 165.503 195 126 195 c 0
 52 195 21.2295 95.7695 71.5 45.5 c 0
 161.186 -44.1865 74.0947 -96.6074 36.7559 -107.385 c 1
 42.6953 -125.883 l 1
46.8779 423.029 m 0
 46.8779 470.029 80.8779 510.029 128.878 510.029 c 0
 176.878 510.029 212.878 470.029 212.878 423.029 c 0
 212.878 375.028 176.878 335.028 128.878 335.028 c 0
 80.8779 335.028 46.8779 375.028 46.8779 423.029 c 0
EndSplineSet
Validated: 524329
EndChar

StartChar: colon
Encoding: 58 58 57
Width: 301
VWidth: 0
Flags: W
HStem: -10 175.001<74.1122 184.504> 335.028 175.001<74.1122 184.504>
VStem: 46.8779 166<19.0695 136.082 364.098 481.11>
LayerCount: 2
Fore
SplineSet
46.8779 423.029 m 0
 46.8779 470.029 80.8779 510.029 128.878 510.029 c 0
 176.878 510.029 212.878 470.029 212.878 423.029 c 0
 212.878 375.028 176.878 335.028 128.878 335.028 c 0
 80.8779 335.028 46.8779 375.028 46.8779 423.029 c 0
46.8779 78.001 m 0
 46.8779 125.001 80.8779 165.001 128.878 165.001 c 0
 176.878 165.001 212.878 125.001 212.878 78.001 c 0
 212.878 30 176.878 -10 128.878 -10 c 0
 80.8779 -10 46.8779 30 46.8779 78.001 c 0
EndSplineSet
Validated: 524289
EndChar

StartChar: parenleft
Encoding: 40 40 58
Width: 318
VWidth: 0
Flags: W
HStem: -74 16.9854<268.8 300.666> 845.015 16.985<268.8 300.666>
VStem: 38 147<228.601 559.399>
LayerCount: 2
Fore
SplineSet
185 394 m 0
 184.906 716.056 218.363 845.015 300.666 845.015 c 1
 300.666 862 l 1
 210.999 862.011 38 692 38 394 c 0
 38 96 211 -74.0107 300.666 -74 c 1
 300.666 -57.0146 l 1
 218.363 -57.0146 184.906 71.9443 185 394 c 0
EndSplineSet
Validated: 524329
EndChar

StartChar: parenright
Encoding: 41 41 59
Width: 318
VWidth: 0
Flags: W
HStem: -74 16.9854<38 69.8663> 845.015 16.985<38 69.8663>
VStem: 153.667 147<228.601 559.399>
LayerCount: 2
Fore
SplineSet
153.667 394 m 0
 153.761 716.056 120.303 845.015 38 845.015 c 1
 38 862 l 1
 127.667 862.011 300.667 692 300.667 394 c 0
 300.667 96 127.666 -74.0107 38 -74 c 1
 38 -57.0146 l 1
 120.303 -57.0146 153.761 71.9443 153.667 394 c 0
EndSplineSet
Validated: 524321
EndChar

StartChar: nine
Encoding: 57 57 60
Width: 611
VWidth: 0
Flags: W
HStem: -19.25 7.75<99 112.975> 306 26<175.286 354.437> 782 17<254.504 333.989>
VStem: 29 162<441.942 645.074> 406 191<352.215 582.79>
LayerCount: 2
Fore
SplineSet
296 799 m 0
 222 799 159 774 107 725 c 0
 55 675 29 614 29 540 c 0
 29 442 94 306 263 306 c 0
 317.891 306 355.422 317.369 378.568 328.149 c 1
 318.803 128.179 175.74 -9.06471 95 -11.5 c 1
 99 -19.25 l 1
 183.5 -19.25 597 120 597 474 c 0
 597 593 497 799 296 799 c 0
384.923 350.867 m 1
 369.257 342.696 342.376 332 309 332 c 0
 206 332 191.585 445.737 191 541 c 0
 191 662.878 189.209 782 296 782 c 0
 403.714 782 406 652 406 514 c 0
 406 456.634 398.221 401.884 384.923 350.867 c 1
EndSplineSet
Validated: 524329
EndChar

StartChar: eight
Encoding: 56 56 61
Width: 603
VWidth: 0
Flags: W
HStem: -15 17.875<255.432 347.785> 797.997 17.001<268.066 364.211>
VStem: 19 101.5<113.087 289.486> 58 130<522.171 695.5> 448.992 137.008<102 299.548> 464 77<537.434 711.752>
LayerCount: 2
Fore
SplineSet
311.009 797.997 m 0xd4
 216.5 797.997 188 715 188 676 c 0
 188 563.926 302.446 528.341 408.597 475.313 c 1
 434.149 491.344 462.578 530.279 464 624 c 1
 462 769 374 797.997 311.009 797.997 c 0xd4
176.991 381.059 m 1
 152.392 346.791 120.5 306.632 120.5 202.5 c 0
 120.5 78 229.167 2.875 295.625 2.875 c 0
 393.219 2.86816 448.992 68 448.992 136 c 0xe8
 448.646 273.692 291.888 311.339 176.991 381.059 c 1
150.894 398.071 m 1
 97.2575 435.892 58 484.343 58 560 c 0
 58 702 167.5 815 315.01 814.998 c 0
 404 815 541 771 541 624 c 0xd4
 541 524.306 475.906 482.938 427.737 465.48 c 1
 511.953 420.853 586 361.265 586 237.831 c 0
 586 100.357 456.536 -14.998 296.5 -15 c 0
 114.5 -15 19 79.5 19 203 c 0
 19 307.694 98.153 355.025 150.894 398.071 c 1
EndSplineSet
Validated: 8912929
EndChar

StartChar: one
Encoding: 49 49 62
Width: 430
VWidth: 0
Flags: W
HStem: 0 8<59.2002 72.8677 405.547 419.2> 699 7.526<43.7988 63.4737> 780.328 20G<260.209 326.197>
VStem: 152.2 173.997<40.4903 691.849>
LayerCount: 2
Fore
SplineSet
317.418 800.328 m 1
 326.197 800.328 l 1
 326.197 85 l 2
 326.197 21 419.2 8 419.2 8 c 1
 419.2 0 l 1
 325.723 20.9863 152.788 18.9883 59.2002 0 c 1
 59.2002 8 l 1
 59.2002 8 152.116 22 152.2 85 c 2
 152.924 627.326 l 2
 152.904 666.209 150.667 675.664 142.665 683.666 c 0
 121.16 705.171 79 699 43.7988 699 c 1
 43.7988 706.526 l 1
 111.531 716.561 203 740.998 317.418 800.328 c 1
EndSplineSet
Validated: 524321
EndChar

StartChar: two
Encoding: 50 50 63
Width: 567
VWidth: 0
Flags: W
HStem: 688 126.989<204.091 370.461>
VStem: 358 180<487.233 629.215> 521.998 8.00104<226.262 243.817>
LayerCount: 2
Fore
SplineSet
529.999 243.817 m 1xa0
 521.998 244.001 l 1xa0
 521.998 244.001 508.998 152 444.998 152 c 2
 73.9791 152 l 1
 200.343 326.292 538 332.884 538 580 c 0
 538 714 440 814.989 298.333 814.989 c 0
 200.855 814.989 55.8242 735.172 3.72754 548 c 1
 17.6709 548 l 1
 74.4062 629.852 154 688 225.983 688 c 0
 326 688 358 608 358 548 c 0xc0
 358 343 8 287 8 0 c 1
 9 0 l 1
 26.999 0 l 1
 492.636 0 l 1
 529.999 243.817 l 1xa0
EndSplineSet
Validated: 8912905
EndChar

StartChar: three
Encoding: 51 51 64
Width: 598
VWidth: 0
Flags: W
HStem: -15 20<247.699 329.705> 416 13.5<211.5 257.144> 695.5 119.5<213.342 360>
VStem: 12 191<90.673 213.693> 104.502 12.004<650.001 660.24> 359.6 166.27<541.744 698.275> 394.5 183<160.611 309.872>
LayerCount: 2
Fore
SplineSet
291.5 5 m 0xe2
 235.5 5 203 38 203 116 c 0
 203 178 194.5 246.916 110.167 246.916 c 1
 18.833 242.917 12 169 12 152.5 c 0
 12 59 138.5 -15 298.5 -15 c 0
 515.5 -15 577.5 183.119 577.5 257 c 0xf2
 577.5 354.605 526.549 441.047 450.203 477.34 c 1
 510.628 523.337 525.87 586.601 525.87 636 c 0
 525.87 756 404.5 815 315.5 815 c 0
 225.5 815 104.5 761 104.502 650.001 c 1
 116.506 650.001 l 1
 116.506 663.966 154.036 695.5 219.2 695.5 c 0
 281.5 695.5 359.6 657.5 359.6 570 c 0xec
 359.6 490.2 319.7 429.5 211.2 429.5 c 1
 211.5 416 l 1
 321.5 416 393.41 323.835 394.5 213.25 c 1
 394.5 109 381.5 5 291.5 5 c 0xe2
EndSplineSet
Validated: 8912905
EndChar

StartChar: four
Encoding: 52 52 65
Width: 657
VWidth: 0
Flags: W
HStem: 0 8<267 280.685 606.583 620> 193.979 104.956<102.183 360 528 610.543>
VStem: 360 168<40.4904 193.979 298.996 610.486>
LayerCount: 2
Fore
SplineSet
652.667 299.014 m 1
 625.333 270.229 610.543 223.896 610.543 193.979 c 1
 528 193.979 l 1
 528 85 l 2
 528 21 620 8 620 8 c 1
 620 0 l 1
 528 21 361 19 267 0 c 1
 267 8 l 1
 267 8 360 22 360 85 c 2
 360 193.979 l 1
 39.4844 193.979 l 1
 39.4844 193.979 46.873 232.096 7.54883 262.979 c 1
 488.677 844.382 l 1
 495.677 845.382 l 1
 495.677 845.382 493 828 528 813.5 c 1
 528 298.996 l 1
 652.667 299.014 l 1
360 298.972 m 1
 360 610.486 l 1
 102.183 298.935 l 1
 360 298.972 l 1
EndSplineSet
Validated: 524321
EndChar

StartChar: five
Encoding: 53 53 66
Width: 549
VWidth: 0
Flags: W
HStem: -15 20<242.003 328.042> 384 190<109.928 258.286>
VStem: 0 191<86.8828 213.693> 404.465 130.535<190.688 251.476>
LayerCount: 2
Fore
SplineSet
517.409 842.5 m 1
 509.408 842.684 l 1
 509.408 842.684 501.408 799.833 437.407 799.833 c 2
 139.949 799.833 l 1
 114 799.833 l 1
 106.785 748.299 101.5 698.75 94.75 647.833 c 1
 94.92 647.833 l 1
 83.3283 555.488 70.1082 462.663 47 371.5 c 1
 58.6689 371.338 l 1
 58.6689 371.338 71.3333 384 130 384 c 0
 324.529 384 405.5 277.232 404.465 138 c 0
 403.959 70.0019 347.497 5 288 5 c 0
 227 5 191 38 191 116 c 0
 191 178 182.5 246.916 98.167 246.916 c 1
 6.83301 242.917 0 169 0 152.5 c 0
 0 59 111 -15 282.5 -15 c 0
 450 -15 535 186 535 303 c 0
 535 456.653 426.435 574 192.5 574 c 0
 159.269 574 128.955 569.196 108.814 565 c 1
 112.408 592.594 115.746 620.21 119.116 647.784 c 1
 241.092 647.499 363.069 646.671 485.045 647.833 c 1
 517.409 842.5 l 1
EndSplineSet
Validated: 524329
EndChar

StartChar: six
Encoding: 54 54 67
Width: 649
VWidth: 0
Flags: W
HStem: -19.25 17<292.011 372.206> 462.75 26<271.72 366.918> 791.25 7.75<513.025 527>
VStem: 29 191<196.96 429.508> 444 162<134.676 336.656>
LayerCount: 2
Fore
SplineSet
330 -19.25 m 0
 404 -19.25 476 5.75 528 54.75 c 0
 580 104.75 606 165.75 606 239.75 c 0
 606 337.75 532 488.75 363 488.75 c 0
 312.241 488.75 276.326 479.028 252.904 469.04 c 1
 315.539 659.509 452.629 788.886 531 791.25 c 1
 527 799 l 1
 442.5 799 29 659.75 29 305.75 c 0
 29 186.75 129 -19.25 330 -19.25 c 0
245.865 446.28 m 1
 261.933 453.998 286.81 462.75 317 462.75 c 0
 420 462.75 443.415 334.013 444 238.75 c 0
 444 116.872 436.791 -2.25 330 -2.25 c 0
 222.286 -2.25 220 127.75 220 265.75 c 0
 220 329.692 229.664 390.385 245.865 446.28 c 1
EndSplineSet
Validated: 524297
EndChar

StartChar: seven
Encoding: 55 55 68
Width: 611
VWidth: 0
Flags: W
LayerCount: 2
Fore
SplineSet
579.168 800.331 m 1
 77.6699 800.331 l 1
 16.3057 605.665 l 1
 24.3066 605.481 l 1
 24.3066 605.481 39.5 648.331 96.3076 648.331 c 2
 493.618 648.331 l 1
 386.618 508.891 187.415 221.211 177 -0.00488281 c 1
 380.989 -0.00488281 l 1
 380.989 265.625 490.156 539.705 546.492 663.459 c 0
 559.234 690.482 579.218 731 579.218 731 c 1
 579.218 731.225 l 2
 579.262 731.31 579.285 731.352 579.285 731.352 c 2
 579.218 731.352 l 1
 579.188 765.754 579.168 800.331 579.168 800.331 c 1
EndSplineSet
Validated: 524297
EndChar

StartChar: at
Encoding: 64 64 69
Width: 755
VWidth: 0
Flags: W
HStem: -167 17<250.276 392.811> 19.5 45<223 337.647> 19.5 18.168<531.544 584.214> 386.5 21<379.446 477> 504 17<355.186 481.71>
LayerCount: 2
Fore
SplineSet
543.335 19.5 m 0xb8
 420.51 19.5 399.066 37.7122 405.156 92.809 c 1
 369.534 48.014 303.811 19.5 251 19.5 c 0xd8
 195 19.5 145 52.5 161 166.5 c 0
 170 228.5 187 258.5 216 290.5 c 0
 265 343.5 352 407.5 444 407.5 c 0
 510 407.5 548 379.5 557 327.5 c 0
 559 313.5 559 299.5 557 284.5 c 2
 530 91.5 l 2
 528 75.5 522 37.668 544 37.668 c 0
 619.848 37.668 664.595 116.93 674.037 183.015 c 0
 699.847 363.674 576.983 500.107 426.963 503.912 c 0
 424.656 503.971 422.336 504 420 504 c 0
 264.345 504 96.1191 365.062 69.9629 181.984 c 0
 44.0879 0.871094 125.419 -145.129 315.682 -149.872 c 0
 319.073 -149.957 322.512 -150 326 -150 c 0
 370.901 -150 418.037 -138.901 464.037 -116.86 c 1
 493.963 -128.141 l 1
 443.963 -152.099 387.099 -167 326 -167 c 0
 321.742 -167 317.521 -166.947 313.34 -166.844 c 0
 73.249 -160.857 4.81055 6.4209 30.0371 183.015 c 0
 55.8818 363.938 217.655 521 420 521 c 0
 423.127 521 426.242 520.961 429.344 520.882 c 0
 628.329 515.835 739.364 359.778 713.963 181.984 c 0
 705.403 122.07 671.488 19.5 543.335 19.5 c 0xb8
408.474 117.126 m 1
 438 327.5 l 2
 443 360.5 441 385.5 410 386.5 c 1
 359 386.5 319 358.5 311 303.5 c 2
 290 155.5 l 1
 285 111.5 286 64.5 336 64.5 c 0
 359.238 64.5 389.914 86.8142 408.474 117.126 c 1
EndSplineSet
Validated: 8912929
EndChar

StartChar: question
Encoding: 63 63 70
Width: 476
VWidth: 0
Flags: W
HStem: -10 175.001<88.1122 198.504> 327 153<171 284.787> 741 60<242.29 332.073>
VStem: 60.8779 166<19.0695 136.082> 129 32<232 298.2> 425 40<554.655 669.377>
LayerCount: 2
Fore
SplineSet
17 685 m 0xec
 17 656 41 618 91 618 c 0
 144 617 170.754 638.585 204 683 c 1
 234 719 266 741 311 741 c 0
 406.861 741.753 425 670 425 626 c 0
 425 488 271 480 197 480 c 1
 104 485 l 1
 129 232 l 1
 161 231 l 1
 171 327 l 1
 302 327 465 414 465 571 c 0
 465 639 435 801 212 801 c 0
 175 801 17 792 17 685 c 0xec
60.8779 78.001 m 0xf4
 60.8779 125.001 94.8779 165.001 142.878 165.001 c 0
 190.878 165.001 226.878 125.001 226.878 78.001 c 0
 226.878 30 190.878 -10 142.878 -10 c 0
 94.8779 -10 60.8779 30 60.8779 78.001 c 0xf4
EndSplineSet
Validated: 8912937
EndChar

StartChar: uniFB02
Encoding: 256 64258 71
Width: 533
VWidth: 0
Flags: W
HStem: -19.664 20G<271.314 272.23> 0 8<20.5 32.0741 511.639 523> 792.5 14.5<225.085 283.802>
VStem: 268.999 5.50122<0 0.658797> 328 135<22.1807 59 700 769.276>
LayerCount: 2
Fore
SplineSet
80.5 434 m 1x78
 80.5 54 l 2
 80.5 44 75.5 35 65.5 27 c 0
 55.5 19 45.5 14 35.5 12 c 2
 20.5 8 l 1
 20.5 0 l 1
 102.818 10.4664 184.82 10.7269 268.999 0.671433 c 1
 269 0 l 2
 269.926 0.113184 270.851 0.225172 271.777 0.335966 c 0
 272.684 0.225175 273.592 0.113186 274.5 0 c 2
 274.5 0.658797 l 1
 360.079 10.699 442.278 10.4942 523 0 c 1
 523 8 l 1
 508 12 l 2
 497 15 487 20 478 27 c 0
 467 35 463 46 463 59 c 2
 463 799 l 1
 456 799 l 1
 429 783 426.626 783.316 407 775.167 c 0
 350 751.5 316.5 807.104 258.5 807 c 0
 130.5 807 105.5 555 24.5 443 c 1
 24.5 434 l 1
 80.5 434 l 1x78
213.5 434 m 1
 328.882 434 l 1
 328 54 l 2
 327.977 44 324 35 313 27 c 1
 304 19 294 14 283 12 c 2
 271.25 8.86667 l 1
 259.5 12 l 2
 248.5 15 238.5 20 229.5 27 c 0
 218.5 35 213.5 59 213.5 59 c 1
 213.5 434 l 1
328.989 480 m 1
 216.5 480 l 1
 216.5 542 180.5 628 180.5 720 c 1
 184.898 764.625 214.5 792.5 254.5 792.5 c 0
 274.333 792.5 329.5 779.852 329.5 700 c 2
 328.989 480 l 1
EndSplineSet
Validated: 524329
LCarets2: 1 0 
Ligature2: "'liga' Ligatures standard dans Latin lookup 0-1" f l
EndChar

StartChar: bracketleft
Encoding: 91 91 72
Width: 359
Flags: W
HStem: -91.4004 10<269.628 321> 849.267 10<269.628 321>
VStem: 60 142<-51.7129 819.58>
LayerCount: 2
Fore
SplineSet
321 -91.4004 m 1
 60 -91.4004 l 1
 60 859.267 l 1
 321 859.267 l 1
 321 849.267 l 1
 255 849.267 204 832.267 202 758.267 c 1
 202 9.59961 l 1
 204 -64.4004 255 -81.4004 321 -81.4004 c 1
 321 -91.4004 l 1
EndSplineSet
Validated: 524289
EndChar

StartChar: bracketright
Encoding: 93 93 73
Width: 359
Flags: W
HStem: -91.4004 10<59 110.372> 849.267 10<59 110.372>
VStem: 178 141<-51.7129 9.59961 758.267 819.58>
LayerCount: 2
Fore
SplineSet
59 -91.4004 m 1
 319 -91.4004 l 1
 319 859.267 l 1
 59 859.267 l 1
 59 849.267 l 1
 125 849.267 176 832.267 178 758.267 c 1
 178 9.59961 l 1
 176 -64.4004 125 -81.4004 59 -81.4004 c 1
 59 -91.4004 l 1
EndSplineSet
Validated: 524297
EndChar

StartChar: backslash
Encoding: 92 92 74
Width: 295
Flags: W
HStem: 0 21G<242.326 284.75>
VStem: 10.75 274
LayerCount: 2
Fore
SplineSet
248.75 0 m 1
 10.75 741 l 1
 48 741 l 1
 284.75 0 l 1
 248.75 0 l 1
EndSplineSet
Validated: 524289
EndChar

StartChar: exclam
Encoding: 33 33 75
Width: 282
Flags: W
HStem: -15 175.001<85.2343 195.626> 795 20G<110 172>
VStem: 58 166<14.0695 131.082 501.113 785.44>
LayerCount: 2
Fore
SplineSet
153 192 m 1
 132 192 l 1
 132 192 58 551 58 715 c 0
 58 760 79 815 141 815 c 0
 203 815 224 760 224 715 c 0
 224 551 146 200 153 192 c 1
58 73.001 m 0
 58 120.001 92 160.001 140 160.001 c 0
 188 160.001 224 120.001 224 73.001 c 0
 224 25 188 -15 140 -15 c 0
 92 -15 58 25 58 73.001 c 0
EndSplineSet
Validated: 524321
EndChar

StartChar: ampersand
Encoding: 38 38 76
Width: 860
VWidth: 0
Flags: W
HStem: -15 57<716.244 808.917> -15 17.875<244.874 368.437> 487 8<539 551.88> 797.997 17.001<275.078 357.435>
VStem: -9 129.5<121.786 282.221> 78 130<522.95 695.5> 432 77<553.401 728.476>
LayerCount: 2
Fore
SplineSet
720.233 -15 m 0xba
 850.233 -15 902.835 99.8564 880 118 c 1
 880 89.1769 823 42 766 42 c 0
 707.47 42 673.102 118.444 610.547 209.013 c 1
 648.075 290.524 665.362 369.466 684 397 c 0
 728 462 808 487 808 487 c 1
 808 495 l 1
 714 476 631 474 539 495 c 1
 539 487 l 1
 539 487 634 464 629 403 c 1
 629 403 625.936 322.322 593.19 233.416 c 1
 559.191 279.726 516.978 328.188 460 371 c 1
 414.979 406.85 366.071 431.718 323.424 460.746 c 1
 380.257 468.058 509 498.223 509 641 c 0
 509 771 404 815 315.01 814.998 c 0
 167.5 815 78 702 78 560 c 0xb6
 78 485.899 97.4396 434.699 134.177 391.511 c 1
 73.5868 350.099 -9.00001 302.408 -9 203 c 0
 -9 79.5 114.5 -15 296.5 -15 c 0x7a
 400.676 -15 473.724 24.8749 526.477 80.118 c 1
 576.287 26.8196 626.677 -15 720.233 -15 c 0xba
512.059 95.8143 m 1
 463.123 43.1056 393.797 4.45531 295.625 2.875 c 1
 197 5 120.5 78 120.5 202.5 c 0x7a
 120.5 288.043 142.022 330.414 163.343 361.814 c 1
 212.22 317.993 281.029 279.476 367 227 c 0
 431.252 187.781 472.741 139.162 512.059 95.8143 c 1
308.439 471.344 m 1
 250.85 513.808 208 568.045 208 676 c 0x36
 208 715 232.5 797.997 311.009 797.997 c 0
 374 797.997 432 767 432 641 c 0
 432 503.485 348.193 476.631 308.439 471.344 c 1
EndSplineSet
Validated: 8912937
EndChar

StartChar: grave
Encoding: 96 96 78
Width: 516
Flags: W
HStem: 565.82 17.23<296.708 335.556>
LayerCount: 2
Fore
SplineSet
344.355 565.82 m 1
 260.755 565.82 205.699 566.364 150.936 606.232 c 0
 111.093 635.236 116.366 677.312 134.459 701.764 c 0
 168.354 747.565 251.955 723.854 251.955 667.021 c 0
 251.955 627.054 272.488 583.05 335.556 583.05 c 1
 344.355 565.82 l 1
EndSplineSet
Validated: 524321
EndChar

StartChar: acute
Encoding: 180 180 79
Width: 516
Flags: W
HStem: 565.82 17.23<143.259 182.107>
LayerCount: 2
Fore
SplineSet
134.459 565.82 m 1
 218.06 565.82 273.115 566.364 327.879 606.232 c 0
 367.722 635.236 362.448 677.312 344.355 701.764 c 0
 310.461 747.565 226.859 723.854 226.859 667.021 c 0
 226.859 627.054 206.326 583.05 143.259 583.05 c 1
 134.459 565.82 l 1
EndSplineSet
Validated: 524329
EndChar

StartChar: igrave
Encoding: 236 236 82
Width: 301
VWidth: 0
InSpiro: 1
Flags: W
HStem: 0 8<37 48.8312 278.945 291> 433 6<10 18.9637> 481 20G<191.5 231> 570 17.23<198.352 237.201>
VStem: 96 135<22.2129 393.474>
LayerCount: 2
Fore
SplineSet
10 439 m 1
 107 454 159 461 224 501 c 1
 231 500 l 1
 231 59 l 1
 230 33 255 17 276 12 c 2
 291 8 l 1
 291 0 l 1
 205.195 10.7272 121.135 10.7226 37 0 c 1
 37 2 37 5 36 8 c 1
 51 12 l 2
 69 16 97 33 96 54 c 1
 97 320 l 2
 97 383 61 420 10 433 c 1
 10 439 l 1
EndSplineSet
Refer: 78 96 N 1 0 0 1 -98.3555 4.17969 2
Validated: 524321
Ligature2: "'liga' Ligatures standard dans Latin lookup 0-1" grave
EndChar

StartChar: slash
Encoding: 47 47 98
Width: 295
Flags: W
LayerCount: 2
Fore
SplineSet
46.75 -73 m 1
 284.75 668 l 1
 247.5 668 l 1
 10.75 -73 l 1
 46.75 -73 l 1
EndSplineSet
Validated: 524297
EndChar

StartChar: asciicircum
Encoding: 94 94 99
Width: 516
Flags: W
LayerCount: 2
Fore
SplineSet
403.459 566 m 1
 432.459 566 l 1
 295.375 721 l 1
 295.375 721 275.043 721 259.543 721 c 1
 259.522 720.998 l 1
 259.5 721 l 1
 223.667 721 l 1
 86.584 566 l 1
 115.584 566 l 1
 165.147 597.044 225.726 614.401 259.521 632.917 c 1
 293.317 614.401 353.896 597.044 403.459 566 c 1
EndSplineSet
Validated: 524297
EndChar

StartChar: dieresis
Encoding: 168 168 110
Width: 543
VWidth: 0
Flags: W
HStem: 585.413 111.983<155.072 239.494 321.932 406.353>
VStem: 144.417 106.224<596.713 685.989> 311.276 106.224<596.713 685.989>
LayerCount: 2
Fore
SplineSet
144.417 641.726 m 0
 144.417 671.622 166.173 699.12 196.888 697.396 c 1
 227.604 697.396 250.641 671.801 250.641 641.726 c 0
 250.641 611.009 227.604 585.413 196.888 585.413 c 0
 166.173 585.413 144.417 611.009 144.417 641.726 c 0
311.276 641.726 m 0
 311.276 671.622 333.033 699.12 363.748 697.396 c 1
 394.464 697.396 417.5 671.801 417.5 641.726 c 0
 417.5 611.009 394.464 585.413 363.748 585.413 c 0
 333.033 585.413 311.276 611.009 311.276 641.726 c 0
EndSplineSet
Validated: 524321
EndChar

StartChar: asciitilde
Encoding: 126 126 121
Width: 613
VWidth: 0
Flags: W
LayerCount: 2
Fore
SplineSet
419.527 653.271 m 1
 436.086 618.195 417.37 597.319 392.93 585.782 c 0
 314.701 549.099 259.964 694.858 174.207 654.381 c 0
 123.171 630.291 100.369 573.382 124.122 523.062 c 1
 129.554 527.384 l 1
 111.661 565.001 140.552 581.361 154.569 587.979 c 0
 229.687 623.434 276.72 470.718 379.573 519.265 c 0
 428.982 542.587 453.167 598.76 426.018 656.279 c 1
 419.527 653.271 l 1
EndSplineSet
Validated: 524329
EndChar

StartChar: uniFB01
Encoding: 257 64257 128
Width: 533
VWidth: 0
Flags: W
HStem: 0 8<20.5 32.3032 516.962 529> 481 20G<429.535 469> 792.5 14.5<224.316 283.266>
VStem: 80.5 133<27.3866 432.962> 274 0.500061<0 0.0622097> 334 135<22.2129 375.788>
LayerCount: 2
Fore
SplineSet
254.5 792.5 m 0
 214.5 792.5 184.898 764.625 180.5 720 c 1
 180.5 628 213.5 541.999 213.5 479.999 c 2
 213.668 439.049 l 1
 310.54 454.015 397.071 461.044 462 501 c 1
 469 500 l 1
 469 59 l 1
 468 33 493 17 514 12 c 2
 529 8 l 1
 529 0 l 1
 443.365 10.7062 358.472 10.7227 274.5 0.0635956 c 1
 274.5 0 l 2
 274.416 0.0105041 274.331 0.0209979 274.247 0.0314772 c 0
 274.165 0.0209965 274.082 0.0105054 274 0 c 2
 274 0.0622097 l 1
 188.066 10.7332 104.447 10.6736 20.5 0 c 1
 20.5 8 l 1
 35.5 12 l 2
 45.5 14 55.5 19 65.5 27 c 0
 75.5 35 80.5 44 80.5 54 c 2
 80.5 434.09 l 1
 24.5 434 l 1
 24.5 443 l 1
 105.5 555 130.5 807 258.5 807 c 0
 382.728 807 433.744 682 433.744 626.115 c 0
 433.744 562.113 386.247 535.115 346.744 535.115 c 0
 272.744 535.115 228 620.371 292.244 684.615 c 0
 337 729.371 313 792.5 254.5 792.5 c 0
213.5 432.962 m 1
 213.5 59 l 1
 213.5 59 218.5 35 229.5 27 c 0
 238.5 20 248.5 15 259.5 12 c 2
 274.25 8.06667 l 1
 289 12 l 2
 307 16 335 33 334 54 c 1
 334 320 l 2
 334 382.939 264.487 419.928 213.5 432.962 c 1
EndSplineSet
Validated: 524321
LCarets2: 1 0 
Ligature2: "'liga' Ligatures standard dans Latin lookup 0-1" f i
EndChar

StartChar: iacute
Encoding: 237 237 129
Width: 301
VWidth: 0
Flags: W
HStem: 0 8<37 48.8312 278.945 291> 433 6<10 18.9637> 481 20G<191.5 231> 570 17.23<23.8 62.6478>
VStem: 96 135<22.2129 393.474>
LayerCount: 2
Fore
SplineSet
10 439 m 1
 107 454 159 461 224 501 c 1
 231 500 l 1
 231 59 l 1
 230 33 255 17 276 12 c 2
 291 8 l 1
 291 0 l 1
 205.195 10.7272 121.135 10.7226 37 0 c 1
 37 2 37 5 36 8 c 1
 51 12 l 2
 69 16 97 33 96 54 c 1
 97 320 l 2
 97 383 61 420 10 433 c 1
 10 439 l 1
EndSplineSet
Refer: 79 180 N 1 0 0 1 -119.459 4.17969 2
Validated: 524329
EndChar

StartChar: icircumflex
Encoding: 238 238 130
Width: 301
VWidth: 0
Flags: W
HStem: 0 8<37 48.8312 278.945 291> 433 6<10 18.9637> 481 20G<191.5 231>
VStem: 96 135<22.2129 393.474>
LayerCount: 2
Fore
SplineSet
10 439 m 1
 107 454 159 461 224 501 c 1
 231 500 l 1
 231 59 l 1
 230 33 255 17 276 12 c 2
 291 8 l 1
 291 0 l 1
 205.195 10.7272 121.135 10.7226 37 0 c 1
 37 2 37 5 36 8 c 1
 51 12 l 2
 69 16 97 33 96 54 c 1
 97 320 l 2
 97 383 61 420 10 433 c 1
 10 439 l 1
EndSplineSet
Refer: 99 94 N 1 0 0 1 -110 23.9473 2
Validated: 8912937
EndChar

StartChar: idieresis
Encoding: 239 239 131
Width: 301
VWidth: 0
Flags: W
HStem: 0 8<37 48.8312 278.945 291> 433 6<10 18.9637> 481 20G<191.5 231> 570 111.983<23.1145 107.536 189.974 274.395>
VStem: 12.459 106.224<581.3 670.576> 96 135<22.2129 393.474> 179.318 106.224<581.3 670.576>
LayerCount: 2
Fore
SplineSet
10 439 m 1xf4
 107 454 159 461 224 501 c 1
 231 500 l 1
 231 59 l 1
 230 33 255 17 276 12 c 2
 291 8 l 1
 291 0 l 1
 205.195 10.7272 121.135 10.7226 37 0 c 1
 37 2 37 5 36 8 c 1
 51 12 l 2
 69 16 97 33 96 54 c 1
 97 320 l 2
 97 383 61 420 10 433 c 1
 10 439 l 1xf4
EndSplineSet
Refer: 110 168 N 1 0 0 1 -131.958 -15.4131 2
Validated: 8912929
EndChar

StartChar: bar
Encoding: 124 124 133
Width: 84
Flags: W
LayerCount: 2
Fore
SplineSet
57.7021 -117.917 m 1
 58.2764 861.271 l 1
 29.8203 861.725 l 1
 30.3906 -117.959 l 1
 57.7021 -117.917 l 1
EndSplineSet
Validated: 524289
EndChar

StartChar: cedilla
Encoding: 184 184 134
Width: 532
VWidth: 0
Flags: W
VStem: 308.542 13.956<-26.2135 5.68457>
LayerCount: 2
Fore
SplineSet
322.498 12.8125 m 1
 308.542 5.68457 l 1
 308.542 -45.4004 272.898 -62.0312 240.524 -62.0312 c 0
 194.49 -62.0312 175.283 -129.749 212.383 -157.203 c 0
 232.188 -171.859 272.33 -174.407 294.764 -143.857 c 0
 324.123 -103.876 322.498 -54.9033 322.498 12.8125 c 1
EndSplineSet
Validated: 524329
EndChar

StartChar: ae
Encoding: 230 230 137
Width: 813
VWidth: 0
Flags: W
HStem: -11 100<548.041 657.902> -10 45<112 231.435> 288 18<444.099 645.948> 489 21<230.437 326.488 509.844 603.156>
VStem: 24 149<283.729 369.922> 26 138<50.5949 154.276> 303.157 140.942<210.365 273.183 282.798 288 306 428.751> 645.948 134.052<306 377.35>
LayerCount: 2
Fore
SplineSet
335.411 118.676 m 1xbb
 321.129 43.4144 213.76 -10 142 -10 c 0
 82 -10 26 32 26 91 c 1x77
 24 175 117 213 176 240 c 0
 212.698 256.753 260.851 274.779 303.705 291.54 c 1
 306 430 l 2
 306.547 462.995 301 488 267 489 c 1
 212 489 172 465 172 410 c 1
 173 363 l 1
 173 302 146 252 89 253 c 0
 54 253 23 277 24 311 c 0
 24 334 37 361 63 393 c 0
 108 446 201 510 300 510 c 0
 352.975 510 390.919 494.412 414.247 464.898 c 1
 455.997 493.476 507.034 510 563 510 c 0
 695 510 780 384 780 288 c 1
 646 288 l 1
 444.099 288 l 1
 456.233 188.01 518.109 89 629 89 c 0
 666 89 725 93 769 163 c 1
 779 162 l 1
 779 158.917 735 -11 562 -11 c 0
 461.929 -11 378.775 39.7473 335.411 118.676 c 1xbb
324.748 140.51 m 1
 310.7 173.148 303 209.756 303 249 c 0
 303 252.17 303.053 255.324 303.157 258.463 c 2
 303.401 273.183 l 1
 224.637 247.084 160.514 221.746 164 125 c 0
 165 81 173 35 227 35 c 0
 260.711 35 320.399 84.1691 324.748 140.51 c 1
442.452 306 m 1
 645.948 306 l 1
 645.331 397.113 638.034 493 563 493 c 0
 476.509 493 436.54 401.76 442.452 306 c 1
EndSplineSet
Validated: 8912929
EndChar

StartChar: guillemotleft
Encoding: 171 171 138
Width: 479
Flags: W
LayerCount: 2
Fore
SplineSet
60.082 237.5 m 1
 236.415 410.791 l 1
 236.415 381.792 l 1
 205.371 332.229 188.014 271.649 169.497 237.854 c 1
 188.014 204.058 205.371 143.479 236.415 93.916 c 1
 236.415 64.917 l 1
 60.082 237.5 l 1
242.667 237.5 m 1
 419 410.791 l 1
 419 381.792 l 1
 387.956 332.229 370.599 271.649 352.082 237.854 c 1
 370.598 204.058 387.955 143.479 419 93.916 c 1
 419 64.917 l 1
 242.667 237.5 l 1
EndSplineSet
Validated: 524289
EndChar

StartChar: guillemotright
Encoding: 187 187 139
Width: 479
Flags: W
LayerCount: 2
Fore
SplineSet
419 237.5 m 1
 242.667 410.791 l 1
 242.667 381.792 l 1
 273.711 332.229 291.068 271.649 309.585 237.854 c 1
 291.068 204.058 273.711 143.479 242.667 93.916 c 1
 242.667 64.917 l 1
 419 237.5 l 1
236.415 237.5 m 1
 60.082 410.791 l 1
 60.082 381.792 l 1
 91.126 332.229 108.483 271.649 127 237.854 c 1
 108.484 204.058 91.127 143.479 60.082 93.916 c 1
 60.082 64.917 l 1
 236.415 237.5 l 1
EndSplineSet
Validated: 524297
EndChar

StartChar: braceleft
Encoding: 123 123 140
Width: 193
VWidth: 0
Flags: W
HStem: 357.344 9.125<38.2617 68.9964>
LayerCount: 2
Fore
SplineSet
156.752 853.623 m 1
 124.832 881.441 105.834 850 95.3359 808.939 c 0
 61.9551 677.514 194.596 585.557 157.762 441.486 c 0
 144.435 389.23 124.242 369.413 97.6334 361.906 c 1
 124.242 354.399 144.435 334.582 157.762 282.326 c 0
 194.596 138.256 61.9551 46.2988 95.3359 -85.127 c 0
 105.834 -126.188 124.832 -157.629 156.752 -129.811 c 1
 159.488 -140.715 l 1
 107.146 -186.326 56.0293 -145.693 34.8066 -62.6875 c 0
 -9.37109 110.105 129.6 189.121 97.3359 315.32 c 0
 91.3125 338.867 82.1543 357.344 38.2617 357.344 c 1
 38.2617 366.469 l 1
 82.1543 366.469 91.3125 384.945 97.3359 408.492 c 0
 129.6 534.691 -9.37109 613.707 34.8066 786.5 c 0
 56.0293 869.506 107.146 910.139 159.488 864.527 c 1
 156.752 853.623 l 1
EndSplineSet
Validated: 524321
EndChar

StartChar: uniFB00
Encoding: 258 64256 141
Width: 613
VWidth: 0
Flags: W
HStem: -19.6575 20G<271.269 272.186> 0 8<20.5 32.0742 511.169 523> 434 46<216.5 275.545> 776.661 30.339<463.299 536> 792.5 14.5<224.752 291.162>
VStem: 269 5.5<0 0.671289> 356.957 19.0399<661.332 709.993> 482 121<650.434 764.05>
LayerCount: 2
Fore
SplineSet
548 434 m 1x6f
 561 480 l 1
 465 480 l 1
 465 542 429 628 429 720 c 1
 433.398 764.625 457.333 776.661 468.347 776.661 c 0
 502.667 776.661 482 726.667 482 696 c 0
 482 650 513 637 546 637 c 0
 577 637 602 662 603 701 c 1
 603 744 565 807 507 807 c 0x77
 447.662 807 411.748 736.725 375.997 661.332 c 1
 375.68 722.726 353.313 807 258.5 807 c 0
 130.5 807 105.5 555 24.5 443 c 1
 24.5 434 l 1
 80.5 434 l 1
 80.5 54 l 2
 80.5 44 75.5 35 65.5 27 c 0
 55.5 19 45.5 14 35.5 12 c 2
 20.5 8 l 1
 20.5 0 l 1
 102.818 10.4665 184.82 10.7269 269 0.671289 c 1
 269 0 l 2
 269.908 0.115411 270.815 0.22958 271.723 0.342511 c 0
 272.648 0.229585 273.574 0.115415 274.5 0 c 2
 274.5 0.684172 l 1
 356.764 10.6909 438.767 10.4994 523 0 c 1
 523 8 l 1
 508 12 l 2
 497 15 487 20 478 27 c 0
 467 35 462 59 462 59 c 1
 462 434 l 1
 548 434 l 1x6f
271.75 8.73333 m 1
 259.5 12 l 2
 248.5 15 238.5 20 229.5 27 c 0
 218.5 35 213.5 59 213.5 59 c 1
 213.5 434 l 1
 273 434 l 1
 329 434 l 1
 329 54 l 2
 329 44 324 35 314 27 c 0
 304 19 294 14 284 12 c 2
 271.75 8.73333 l 1
356.957 621.297 m 1
 321.243 547.581 281.737 480 216.5 480 c 1
 216.5 542 180.5 628 180.5 720 c 0
 180.5 760.5 214.5 792.5 254.5 792.5 c 0x2f
 315.752 792.5 356.682 749.292 356.957 621.297 c 1
EndSplineSet
Validated: 8912937
LCarets2: 1 0 
Ligature2: "'liga' Ligatures standard dans Latin lookup 0-1" f f
EndChar

StartChar: uniFB04
Encoding: 259 64260 142
Width: 786
VWidth: 0
Flags: W
HStem: -19.5999 20G<271.094 272.166 519.252 520.168> 0 8<20.875 32.4062 759.576 770.938> 434 46<216.875 276.277> 792.5 14.5<225.127 291.567 476.217 531.74>
VStem: 268.438 6.43701<0 0.782803> 357.333 19.0395<661.242 709.85> 516.937 5.50122<0 0.658804> 576.82 134.118<22.4077 59 700 767.704>
LayerCount: 2
Back
SplineSet
548 434 m 5
 561 480 l 5
 465 480 l 5
 465 542 429 628 429 720 c 5
 433.398 764.625 457.333 776.661 468.347 776.661 c 5
 502.667 776.661 482 726.667 482 696 c 5
 482 650 513 637 546 637 c 4
 577 637 602 662 603 701 c 5
 603 744 565 807 507 807 c 4xee
 379 807 360 480 216.5 480 c 5
 273 434 l 5
 548 434 l 5
329 441 m 5
 329 54 l 6
 329 44 324 35 314 27 c 4
 304 19 294 14 284 12 c 6
 269 8 l 5
 269 0 l 5
 353.11 10.6943 436.89 10.7334 523 0 c 5
 523 8 l 5
 508 12 l 6
 497 15 487 20 478 27 c 4
 467 35 462 59 462 59 c 5
 462 441 l 5
 329 441 l 5
EndSplineSet
Fore
SplineSet
80.875 434 m 1x7f
 80.875 54 l 2
 80.875 44 75.875 35 65.875 27 c 0
 55.875 19 45.875 14 35.875 12 c 2
 20.875 8 l 1
 20.875 0 l 1
 102.888 10.4276 184.587 10.7248 268.438 0.782803 c 1
 268.438 0 l 1
 269.5 0.135077 270.563 0.268455 271.625 0.40013 c 0
 272.708 0.26846 273.791 0.135084 274.875 0 c 1
 274.875 0.797712 l 1
 355.033 10.473 434.951 10.4648 516.937 0.671426 c 1
 516.938 0 l 2
 517.864 0.113185 518.789 0.225174 519.715 0.335966 c 0
 520.622 0.225176 521.53 0.113188 522.438 0 c 2
 522.438 0.658804 l 1
 608.017 10.699 690.215 10.4942 770.938 0 c 1
 770.938 8 l 1
 755.938 12 l 2
 744.938 15 734.938 20 725.938 27 c 0
 714.938 35 710.938 46 710.938 59 c 2
 710.938 799 l 1
 703.938 799 l 1
 676.938 783 674.563 783.316 654.938 775.167 c 0
 597.938 751.5 564.438 807.104 506.438 807 c 0
 447.076 807 411.709 736.669 376.372 661.242 c 1
 376.076 722.644 353.734 807 258.875 807 c 0
 130.875 807 105.875 555 24.875 443 c 1
 24.875 434 l 1
 80.875 434 l 1x7f
213.875 434 m 1
 272.438 434 l 1
 328.438 434 l 1
 328.438 54 l 2
 328.438 44 323.438 35 313.438 27 c 0
 303.438 19 293.438 14 283.438 12 c 2
 271.656 8.85827 l 1
 259.875 12 l 2
 248.875 15 238.875 20 229.875 27 c 0
 218.875 35 213.875 59 213.875 59 c 1
 213.875 434 l 1
461.438 434 m 1
 576.82 434 l 1
 575.938 54 l 2
 575.914 44 571.938 35 560.938 27 c 1
 551.938 19 541.938 14 530.938 12 c 2
 519.188 8.86667 l 1
 515.271 9.91111 511.355 10.9556 507.438 12 c 0
 496.438 15 486.438 20 477.438 27 c 0
 466.438 35 461.438 59 461.438 59 c 1
 461.438 434 l 1
216.875 480 m 1
 216.875 542 180.875 628 180.875 720 c 0
 180.875 760.5 214.875 792.5 254.875 792.5 c 0
 316.211 792.5 357.17 749.173 357.333 620.769 c 1
 322.042 547.259 282.693 480 216.875 480 c 1
576.927 480 m 1
 464.438 480 l 1
 464.438 542 428.438 628 428.438 720 c 1
 432.836 764.625 462.438 792.5 502.438 792.5 c 0
 522.271 792.5 577.438 779.852 577.438 700 c 2
 576.927 480 l 1
EndSplineSet
Validated: 524329
LCarets2: 3 0 0 0 
Ligature2: "'liga' Ligatures standard dans Latin lookup 0-1" f f l 
EndChar

StartChar: uniFB03
Encoding: 260 64259 143
Width: 786
VWidth: 0
Flags: W
HStem: 0 8<20.875 32.3632 763.962 776> 434 46<216.875 276.464> 481 20G<675.535 715> 792.5 14.5<225.127 291.479 474.947 530.535>
VStem: 80.875 133<27.3866 434> 267.5 7.375<0 0.893602> 327.5 133<27.3866 432.962> 357.332 19.0351<662.07 707.499> 521 0.500061<0 0.0622098> 581 135<22.2129 375.788>
LayerCount: 2
Fore
SplineSet
501.5 792.5 m 0xfdc0
 461.5 792.5 431.898 764.625 427.5 720 c 1
 427.5 628 460.5 542 460.5 480 c 2xfec0
 460.668 439.049 l 1
 557.538 454.015 643.071 461.044 708 501 c 1
 715 500 l 1
 716 59 l 1
 715 33 740 17 761 12 c 2
 776 8 l 1
 776 0 l 1
 690.365 10.7062 605.472 10.7227 521.5 0.0635956 c 1
 521.5 0 l 2
 521.416 0.0105041 521.331 0.0209979 521.247 0.0314772 c 0
 521.165 0.0209965 521.082 0.0105054 521 0 c 2
 521 0.0622098 l 1
 437.582 10.4207 356.347 10.6679 274.875 0.91049 c 1
 274.875 0 l 1
 273.633 0.154771 272.392 0.307303 271.151 0.457596 c 0
 269.934 0.307295 268.717 0.154763 267.5 0 c 1
 267.5 0.893602 l 1
 183.977 10.7225 102.582 10.3888 20.875 0 c 1
 20.875 8 l 1
 35.875 12 l 2
 45.875 14 55.875 19 65.875 27 c 0
 75.875 35 80.875 44 80.875 54 c 2
 80.875 434 l 1
 24.875 434 l 1
 24.875 443 l 1
 105.875 555 130.875 807 258.875 807 c 0
 353.308 807 375.874 723.399 376.367 662.07 c 1
 411.31 737.183 446.355 807 505.5 807 c 0
 633 807 680.744 690.5 680.744 626.115 c 0
 680.744 562.113 633.247 535.115 593.744 535.115 c 0
 519.744 535.115 475 620.371 539.244 684.615 c 0
 584 729.371 560 792.5 501.5 792.5 c 0xfdc0
213.875 434 m 1
 213.875 59 l 1
 213.875 59 218.875 35 229.875 27 c 0
 238.875 20 248.875 15 259.875 12 c 2
 271.188 8.98333 l 1
 282.5 12 l 2
 292.5 14 302.5 19 312.5 27 c 0
 322.5 35 327.5 44 327.5 54 c 2
 327.5 434 l 1
 271.5 434 l 1
 213.875 434 l 1
357.332 621.295 m 1xfdc0
 357.058 749.291 316.127 792.5 254.875 792.5 c 0
 214.875 792.5 180.875 760.5 180.875 720 c 0
 180.875 628 216.875 542 216.875 480 c 1
 283.02 480 322.221 547.58 357.332 621.295 c 1xfdc0
460.5 432.962 m 1xfec0
 460.5 59 l 1
 460.5 59 465.5 35 476.5 27 c 0
 485.5 20 495.5 15 506.5 12 c 2
 521.25 8.06667 l 1
 536 12 l 2
 554 16 582 33 581 54 c 1
 581 320 l 2
 581 382.939 511.487 419.928 460.5 432.962 c 1xfec0
EndSplineSet
Validated: 524321
LCarets2: 2 0 0 
Ligature2: "'liga' Ligatures standard dans Latin lookup 0-1" f f i
EndChar

StartChar: uniFB05
Encoding: 261 64261 144
Width: 613
VWidth: 0
Flags: W
HStem: -10 40<411.125 563.551> 0 8<20.5 32.3261 262.406 274.5> 462 46<474.125 572.125> 792.5 14.5<224.752 291.324>
VStem: 337.125 134<55.2418 462> 356.958 19.042<660 708.914>
LayerCount: 2
Fore
SplineSet
213.5 480 m 2x74
 213.5 542 180.5 628 180.5 720 c 0
 180.5 760.5 214.5 792.5 254.5 792.5 c 0
 315.958 792.5 356.958 749 356.958 620 c 1
 376 660 l 1
 376 721.5 354 807 258.5 807 c 0
 130.5 807 105.5 555 24.5 443 c 1
 24.5 434 l 1
 80.5 434 l 1
 80.5 54 l 2
 80.5 44 75.5 35 65.5 27 c 0
 55.5 19 45.5 14 35.5 12 c 2
 20.5 8 l 1
 20.5 0 l 1
 104.61 10.6943 188.39 10.7334 274.5 0 c 1
 274.5 8 l 1
 259.5 12 l 2
 248.5 15 238.5 20 229.5 27 c 0
 218.5 35 213.5 59 213.5 59 c 1
 213.5 441 l 1
 213.182 441 l 1
 213.5 480 l 2x74
463.125 668 m 1
 473.125 668 l 1
 473.125 668 474.125 554 474.125 508 c 1
 585.125 508 l 1
 572.125 462 l 1
 470.147 462 l 1
 471.125 144 l 1
 474.125 57 502.125 30 540.125 30 c 0
 582.125 30 612.125 61 611.125 62 c 2
 619.125 56 l 1
 619.125 56 576.125 -10 478.125 -10 c 0
 344.125 -10 337.125 106 337.125 139 c 2
 337.125 462 l 1xb8
 282.125 462 l 1
 282.125 471 l 1
 282.125 471 383.125 544 463.125 668 c 1
EndSplineSet
Validated: 8912937
EndChar

StartChar: quotesingle
Encoding: 39 39 145
Width: 189
Flags: W
HStem: 553.979 269.477<85.1407 103.965>
VStem: 53.2158 82.6742<622.522 818.826>
LayerCount: 2
Fore
SplineSet
100.529 553.979 m 1
 90.0703 553.979 l 1
 90.0703 553.979 53.2158 691.975 53.2158 773.651 c 0
 53.2158 796.063 63.6748 823.456 94.5527 823.456 c 0
 125.431 823.456 135.89 796.063 135.89 773.651 c 0
 135.89 691.975 97.043 557.964 100.529 553.979 c 1
EndSplineSet
Validated: 524321
EndChar

StartChar: equal
Encoding: 61 61 146
Width: 540
Flags: W
HStem: 144 76<65 471> 334 76<65 471>
LayerCount: 2
Fore
SplineSet
65 144 m 1
 65 220 l 1
 471 220 l 1
 471 144 l 1
 65 144 l 1
65 334 m 1
 65 410 l 1
 471 410 l 1
 471 334 l 1
 65 334 l 1
EndSplineSet
Validated: 1
EndChar

StartChar: uni0080
Encoding: 128 128 147
Width: 213
VWidth: 0
Flags: W
HStem: 595.949 238.965
LayerCount: 2
Fore
SplineSet
117.407 595.949 m 1
 105.179 610.236 l 1
 128.52 666.921 96.5674 701.66 60.6455 716.452 c 0
 9.56543 737.485 19.1943 821.402 72.9033 834.914 c 0
 101.577 842.127 141.349 831.294 152.669 784.749 c 0
 168.233 720.773 148.347 671.088 117.407 595.949 c 1
EndSplineSet
Validated: 524321
EndChar

StartChar: quotedbl
Encoding: 34 34 148
Width: 309
Flags: W
HStem: 553.979 269.477<-36.9696 -18.1454 85.1406 103.965>
VStem: 53.2158 82.6742<622.522 818.826> 175.326 82.674<622.522 818.826>
LayerCount: 2
Fore
SplineSet
100.529 553.979 m 1
 90.0703 553.979 l 1
 90.0703 553.979 53.2158 691.975 53.2158 773.651 c 0
 53.2158 796.063 63.6748 823.456 94.5527 823.456 c 0
 125.431 823.456 135.89 796.063 135.89 773.651 c 0
 135.89 691.975 97.043 557.964 100.529 553.979 c 1
222.64 553.979 m 1
 212.181 553.979 l 1
 212.181 553.979 175.326 691.975 175.326 773.651 c 0
 175.326 796.063 185.785 823.456 216.663 823.456 c 0
 247.541 823.456 258 796.063 258 773.651 c 0
 258 691.975 219.153 557.964 222.64 553.979 c 1
EndSplineSet
Validated: 524321
EndChar

StartChar: hyphen
Encoding: 45 45 149
Width: 348
Flags: W
HStem: 171 76<42 314>
VStem: 42 272<171 247>
LayerCount: 2
Fore
SplineSet
42 171 m 1
 42 247 l 1
 314 247 l 1
 314 171 l 1
 42 171 l 1
EndSplineSet
Validated: 1
EndChar

StartChar: underscore
Encoding: 95 95 150
Width: 694
Flags: W
HStem: -76 76<44 648>
LayerCount: 2
Fore
SplineSet
44 -76 m 1
 44 0 l 1
 648 0 l 1
 648 -76 l 1
 44 -76 l 1
EndSplineSet
Validated: 1
EndChar

StartChar: less
Encoding: 60 60 151
Width: 297
Flags: W
LayerCount: 2
Fore
SplineSet
40.082 237.5 m 1
 277 1.39551 l 1
 277 30.3945 l 1
 245.957 79.957 168.014 203.351 149.498 237.146 c 1
 168.014 271.649 245.957 395.043 277 444.605 c 1
 277 473.604 l 1
 40.082 237.5 l 1
EndSplineSet
Validated: 524297
EndChar

StartChar: greater
Encoding: 62 62 152
Width: 297
Flags: W
LayerCount: 2
Fore
SplineSet
257 237.5 m 1
 20.082 473.604 l 1
 20.082 444.605 l 1
 51.125 395.043 129.068 271.649 147.584 237.854 c 1
 129.068 203.351 51.125 79.957 20.082 30.3945 c 1
 20.082 1.39551 l 1
 257 237.5 l 1
EndSplineSet
Validated: 524297
EndChar

StartChar: plus
Encoding: 43 43 153
Width: 540
Flags: W
HStem: 241 76<65 224 308 471>
VStem: 224 84<79 241 317 485>
LayerCount: 2
Fore
SplineSet
65 241 m 1
 65 317 l 1
 224 317 l 1
 224 485 l 1
 308 485 l 1
 308 317 l 1
 471 317 l 1
 471 241 l 1
 308 241 l 1
 308 79 l 1
 224 79 l 1
 224 241 l 1
 65 241 l 1
EndSplineSet
Validated: 1
EndChar

StartChar: AE
Encoding: 198 198 154
Width: 1284
VWidth: 0
Flags: W
HStem: 0 16.9854<823.192 959.094> 0 8<9.65918 32.2317 305.59 323.157 519.659 535.661> 389.912 16.088<816.659 873.223> 782.886 16.989<788.532 937.341> 792.5 8<521.159 537.051>
VStem: 612.361 174.751<40.9307 85 715.5 762.971> 1023.66 9.33002<202.911 243.404 552.507 593>
LayerCount: 2
Fore
SplineSet
786.696 793 m 0xb6
 759.506 789.858 730.097 786.799 695.659 786.561 c 0
 631.7 786.535 567.765 791.08 521.159 800.5 c 1
 521.159 792.5 l 1
 521.159 792.5 548.698 788.365 573.804 774.479 c 1
 209.659 178.998 l 1
 209.659 178.998 121.493 11.001 9.65918 8.25098 c 1
 9.6123 0 l 1
 103.604 11.7978 231.659 9.58594 323.157 0 c 1
 323.157 8 l 1
 323.157 8 167.533 26.7363 225.659 170.998 c 1
 270.807 246.001 l 1
 612.297 246.001 l 1
 611.659 85 l 2
 611.509 22 519.659 8 519.659 8 c 1
 519.659 0 l 1x6e
 640.031 0 754.431 0 872.159 0 c 0xa6
 985.326 0 1098.49 0 1211.66 0 c 1x66
 1254 282.993 l 1
 1244.66 282.993 l 1
 1244.66 282.993 1208.66 16.9854 872.159 16.9854 c 0
 846.659 16.9854 786.376 20.7432 786.659 85 c 2
 787.09 389.912 l 1
 816.659 389.912 l 1
 816.659 389.912 1023.66 389.911 1023.66 202.911 c 1
 1032.99 202.911 l 1
 1032.99 593 l 1
 1023.66 593 l 1
 1023.66 406 816.659 406 816.659 406 c 1
 787.112 406 l 1
 787.635 776.061 l 1
 792.514 777.374 816.194 782.886 870.04 782.886 c 0
 1083.98 782.886 1202.66 568 1202.66 568 c 1
 1212.06 568 l 1
 1134.83 771.5 l 1
 1134.83 771.5 1003.16 799.875 870.04 799.875 c 1
 831.083 798.72 820.609 796.685 787.659 793.104 c 1
 787.659 793.112 l 2
 787.338 793.075 787.017 793.038 786.696 793 c 0xb6
584.778 767.596 m 1
 601.163 755.904 614.253 739.156 614.159 715.5 c 2
 612.361 262.001 l 1
 280.438 262.001 l 1
 584.778 767.596 l 1
EndSplineSet
Validated: 8912937
EndChar

StartChar: dollar
Encoding: 36 36 156
Width: 612
Flags: W
HStem: -14.6611 18.2073<331.05 372.12> 797.771 16.8558<244.724 281.166>
VStem: 50 130<602.565 667.709> 57.037 14.963<-0.999513 24.251 287.306 305> 440.992 137.008<132.638 320.894> 504.375 8.375<782.914 804.667> 518.25 12.5<540.667 564.242>
LayerCount: 2
Fore
SplineSet
281.176 797.771 m 1xe0
 281.329 534.152 l 1
 223.297 567.069 180 607.066 180 676 c 0
 180 713.743 185.806 792.984 281.176 797.771 c 1xe0
331.346 508.44 m 1
 331.51 787.929 l 1
 422.397 745.376 518.25 580.63 518.25 540.667 c 1
 530.75 540.667 l 1
 512.75 804.667 l 1
 504.375 804.667 l 1
 504.375 804.667 502.75 756.667 471.25 756.667 c 0
 435.948 756.667 410.454 801.537 331.524 812.57 c 1
 331.574 897.188 l 1
 281.118 897.642 l 1
 281.134 869.97 281.15 842.298 281.166 814.627 c 1
 148.135 807.455 50 697.28 50 560 c 0xe6
 50 425.904 173.326 377.277 281.453 321.815 c 1
 281.514 217.72 281.574 113.624 281.635 9.52934 c 1
 195.861 40.8933 103.76 179.719 75 305 c 1
 61.9355 305 l 1
 60.3027 203 58.6699 101 57.037 -0.999513 c 1
 57.037 -0.902813 64.3137 -1.0429 72 -1 c 1
 72 25 89 38 102 38 c 0
 127.945 38 210.029 -0.989586 281.647 -12.0859 c 1
 281.688 -82.042 l 1
 331 -82 l 1
 331.039 -14.6611 l 1
 482.46 -7.72746 578 104.677 578 237.831 c 0xd8
 578 403.957 443.873 454.435 331.346 508.44 c 1
57.037 -0.999513 m 1xd0
 57.0371 -1 l 1
 57.037 -0.999513 l 1xd0
331.05 3.54622 m 1
 331.221 294.529 l 1
 393.172 257.317 440.802 211.831 440.992 136 c 0xc8
 440.992 71.6336 416.443 9.94823 331.05 3.54622 c 1
EndSplineSet
Validated: 8912901
EndChar

StartChar: braceright
Encoding: 125 125 157
Width: 193
VWidth: 0
Flags: W
HStem: 357.344 9.125<125.299 156.033>
LayerCount: 2
Fore
SplineSet
37.543 853.623 m 1
 69.4629 881.441 88.4609 850 98.959 808.939 c 0
 132.34 677.514 -0.300781 585.557 36.5332 441.486 c 0
 49.8597 389.23 70.0531 369.413 96.6615 361.906 c 1
 70.0531 354.399 49.8597 334.582 36.5332 282.326 c 0
 -0.300781 138.256 132.34 46.2988 98.959 -85.127 c 0
 88.4609 -126.188 69.4629 -157.629 37.543 -129.811 c 1
 34.8066 -140.715 l 1
 87.1484 -186.326 138.266 -145.693 159.488 -62.6875 c 0
 203.666 110.105 64.6953 189.121 96.959 315.32 c 0
 102.982 338.867 112.141 357.344 156.033 357.344 c 1
 156.033 366.469 l 1
 112.141 366.469 102.982 384.945 96.959 408.492 c 0
 64.6953 534.691 203.666 613.707 159.488 786.5 c 0
 138.266 869.506 87.1484 910.139 34.8066 864.527 c 1
 37.543 853.623 l 1
EndSplineSet
Validated: 524329
EndChar

StartChar: exclamdown
Encoding: 161 161 158
Width: 282
Flags: W
HStem: 639.999 175.001<85.2343 195.626>
VStem: 58 166<14.5601 298.887 668.918 785.931>
LayerCount: 2
Fore
SplineSet
153 608 m 1
 132 608 l 1
 132 608 58 249 58 85 c 0
 58 40 79 -15 141 -15 c 0
 203 -15 224 40 224 85 c 0
 224 249 146 600 153 608 c 1
58 726.999 m 0
 58 679.999 92 639.999 140 639.999 c 0
 188 639.999 224 679.999 224 726.999 c 0
 224 775 188 815 140 815 c 0
 92 815 58 775 58 726.999 c 0
EndSplineSet
Validated: 524329
EndChar

StartChar: divide
Encoding: 247 247 159
Width: 540
Flags: W
HStem: 79.5 112.001<227.537 311.971> 241 76<65 471> 367.994 112.001<227.537 311.971>
VStem: 216.88 106.24<90.8022 180.242 379.296 468.736>
LayerCount: 2
Fore
SplineSet
65 241 m 1
 65 317 l 1
 471 317 l 1
 471 241 l 1
 65 241 l 1
216.88 424.315 m 0
 216.88 454.395 238.64 479.995 269.36 479.995 c 0
 300.08 479.995 323.12 454.395 323.12 424.315 c 0
 323.12 393.594 300.08 367.994 269.36 367.994 c 0
 238.64 367.994 216.88 393.594 216.88 424.315 c 0
216.88 135.82 m 0
 216.88 165.901 238.64 191.501 269.36 191.501 c 0
 300.08 191.501 323.12 165.901 323.12 135.82 c 0
 323.12 105.101 300.08 79.5 269.36 79.5 c 0
 238.64 79.5 216.88 105.101 216.88 135.82 c 0
EndSplineSet
Validated: 524289
EndChar

StartChar: numbersign
Encoding: 35 35 160
Width: 515
Flags: W
LayerCount: 2
Fore
SplineSet
339.224 367.272 m 1
 381.112 600.211 l 1
 350.939 600.211 l 1
 310.414 372.717 l 1
 215.612 390.636 l 1
 252.83 597.605 l 1
 222.657 597.605 l 1
 186.76 396.089 l 1
 25 426.664 l 1
 25 397.505 l 1
 181.676 367.552 l 1
 161.72 255.529 l 1
 25 281.371 l 1
 25 252.212 l 1
 156.646 227.044 l 1
 115.737 -2.60547 l 1
 144.897 -2.60547 l 1
 185.212 221.583 l 1
 280.255 203.413 l 1
 244.02 0 l 1
 273.18 0 l 1
 308.778 197.96 l 1
 493.18 162.707 l 1
 493.18 192.879 l 1
 313.956 226.755 l 1
 334.037 338.424 l 1
 493.18 308 l 1
 493.18 338.172 l 1
 339.224 367.272 l 1
305.285 343.921 m 1
 285.375 232.157 l 1
 190.343 250.119 l 1
 210.471 362.047 l 1
 305.285 343.921 l 1
EndSplineSet
Validated: 524297
EndChar

StartChar: quoteright
Encoding: 263 8217 161
Width: 199
VWidth: 0
Flags: W
HStem: 577.735 242.3
LayerCount: 2
Fore
SplineSet
79.3545 577.735 m 1
 71.2783 594.719 l 1
 122.99 683.996 78.9901 691.996 56 708.875 c 0
 12.1768 742.506 43.3662 821.004 98.7412 820.035 c 0
 128.304 819.518 163.871 798.683 162.655 750.796 c 0
 160.988 684.976 128.828 642.199 79.3545 577.735 c 1
EndSplineSet
Validated: 524321
EndChar

StartChar: asterisk
Encoding: 42 42 162
Width: 405
Flags: W
HStem: 548 49.604<42.435 184.864 221.17 363.216>
VStem: 177.805 49.604<413.089 552.105 590.184 733.871>
LayerCount: 2
Fore
SplineSet
208.625 587.082 m 1
 223.034 609.591 252.046 656.919 277.878 682.751 c 0
 287.386 692.26 303.445 699.444 316.545 686.344 c 0
 329.646 673.244 322.461 657.185 312.953 647.676 c 0
 288.289 623.011 243.598 594.164 219.884 579.583 c 1
 246.941 585.584 298.328 597.604 333.521 597.604 c 0
 346.968 597.604 363.404 591.329 363.404 572.803 c 0
 363.404 554.275 346.968 548 333.521 548 c 0
 298.616 548 246.567 559.219 219.505 565.675 c 1
 242.959 550.742 287.534 523.03 312.319 498.245 c 0
 321.827 488.736 329.012 472.677 315.911 459.576 c 0
 302.811 446.476 286.752 453.661 277.243 463.169 c 0
 252.822 487.59 224.299 531.645 209.585 555.53 c 1
 215.649 528.248 227.409 477.595 227.409 442.784 c 0
 227.409 429.338 221.134 412.901 202.606 412.901 c 0
 184.08 412.901 177.805 429.338 177.805 442.784 c 0
 177.805 476.289 188.14 525.589 194.68 553.425 c 1
 179.678 529.185 151.948 486.671 128.122 462.846 c 0
 118.613 453.337 102.554 446.152 89.4531 459.252 c 0
 76.3535 472.353 83.5381 488.412 93.0469 497.921 c 0
 118.06 522.934 163.23 550.929 186.503 565.76 c 1
 159.543 559.318 107.19 548 72.1309 548 c 0
 58.6836 548 42.2471 554.275 42.2471 572.803 c 0
 42.2471 591.329 58.6836 597.604 72.1309 597.604 c 0
 107.488 597.604 159.19 585.472 186.145 579.499 c 1
 162.61 593.945 117.308 623.104 92.4121 648 c 0
 82.9043 657.509 75.7188 673.567 88.8193 686.668 c 0
 101.92 699.77 117.979 692.584 127.488 683.076 c 0
 152.756 657.808 181.067 611.97 195.776 588.914 c 1
 189.375 615.598 177.805 668.727 177.805 704.175 c 0
 177.805 717.622 184.08 734.059 202.606 734.059 c 0
 221.134 734.059 227.409 717.622 227.409 704.175 c 0
 227.409 667.421 214.298 613.002 208.625 587.082 c 1
EndSplineSet
Validated: 524321
EndChar

StartChar: OE
Encoding: 264 338 163
Width: 1245
VWidth: 0
Flags: W
HStem: -15 16.9512<363.095 441.751> 0 16.9854<787.601 919.435> 389.912 16.088<777 833.564> 782.886 16.989<747.728 895.681> 798.004 16.985<355.031 447.751>
VStem: 28 198<242.327 539.624> 570.892 176.108<173.798 389.912 406 641.973> 984 9.33301<202.911 243.404 552.507 593>
LayerCount: 2
Fore
SplineSet
399.928 798.004 m 1xaf
 506.438 796.09 570.892 709.14 570.892 387.14 c 0
 570.892 88.1396 481.003 1.95117 399.468 1.95117 c 0
 317.932 1.95117 226 91 226 390 c 0
 226 712 293.416 796.09 399.928 798.004 c 1xaf
399.595 -15 m 1
 427.399 -16.2184 454.302 -14.4143 480 -9.62014 c 1
 480 -10 l 1
 485.285 -8.71057 490.459 -7.48619 495.527 -6.32421 c 0
 669.292 33.5164 718.107 0 832.5 0 c 0
 945.667 0 1058.83 0 1172 0 c 1
 1214.34 282.993 l 1
 1205 282.993 l 1
 1205 282.993 1169 16.9854 832.5 16.9854 c 0
 807 16.9854 746.717 20.7432 747 85 c 2
 747 389.912 l 1
 777 389.912 l 1
 777 389.912 984 389.911 984 202.911 c 1
 993.333 202.911 l 1
 993.333 593 l 1
 984 593 l 1
 984 406 777 406 777 406 c 1
 747 406 l 1
 747 776.324 l 1
 753.655 777.984 777.604 782.886 828.381 782.886 c 0
 1042.32 782.886 1161 568 1161 568 c 1
 1170.4 568 l 1
 1093.17 771.5 l 1
 1093.17 771.5 961.5 799.875 828.381 799.875 c 1x77
 789.047 798.709 778.75 796.646 745.037 793 c 1
 745.037 792.885 l 1
 718.08 789.784 688.017 786.796 654 786.561 c 0
 592.978 786.536 530.971 790.372 488.278 801.363 c 1
 457.994 810.589 427.936 814.989 399.928 814.989 c 0
 254.272 814.989 28 692 28 394 c 0
 28 113 203.432 -15 399.595 -15 c 1
EndSplineSet
Validated: 8912937
EndChar
